<svg xmlns="http://www.w3.org/2000/svg" xmlns:xlink="http://www.w3.org/1999/xlink" viewBox="0 0 243 173.24"><defs><style>.cls-1{fill:none;}.cls-2{isolation:isolate;}.cls-23,.cls-3,.cls-36,.cls-41,.cls-44,.cls-46,.cls-49{mix-blend-mode:multiply;}.cls-4{fill:#e5e6e7;}.cls-19,.cls-5{fill:#fff;}.cls-6{fill:#6d6e71;}.cls-7{fill:#ececec;}.cls-8{clip-path:url(#clip-path);}.cls-9{clip-path:url(#clip-path-2);}.cls-10,.cls-50{fill:#309693;}.cls-11{fill:#3f9fc7;}.cls-12{fill:#a5d7ef;}.cls-13{fill:#086e91;}.cls-14,.cls-19{opacity:0.5;}.cls-15{fill:#9bd30f;}.cls-16{fill:#11c3e4;}.cls-17{fill:#e39100;}.cls-18{fill:#ff21e5;}.cls-19{mix-blend-mode:overlay;}.cls-20{fill:#36636b;}.cls-21{fill:#e87b18;}.cls-22{fill:#e4f1f4;}.cls-23,.cls-49{opacity:0.25;}.cls-24{fill:#2c464d;}.cls-25{fill:#e8b18b;}.cls-26{fill:#e2d1c5;}.cls-27{fill:#fcc49a;}.cls-28{fill:#e2a479;}.cls-29{fill:#f2e6dc;}.cls-30{opacity:0.3;}.cls-31{fill:#ff8f71;}.cls-32{fill:#3f2615;}.cls-33{fill:#194351;}.cls-34{opacity:0.24;}.cls-35{fill:#14272b;}.cls-36,.cls-37{fill:#052f49;}.cls-36{opacity:0.16;}.cls-38{fill:#296b6d;}.cls-39{clip-path:url(#clip-path-3);}.cls-40,.cls-41{fill:#2f6470;}.cls-41{opacity:0.32;}.cls-42{fill:#56370e;}.cls-43{fill:#ef5843;}.cls-44{opacity:0.59;}.cls-45{fill:#eac6ac;}.cls-46{opacity:0.74;}.cls-47{fill:#563917;}.cls-48{fill:#3f2919;}.cls-49{fill:#1f363d;}.cls-50{font-size:4.8px;font-family:NotoSansCJKtc-Bold-B5pc-H, Noto Sans CJK TC;font-weight:700;}</style><clipPath id="clip-path"><rect class="cls-1" x="41.26" y="9.69" width="159.44" height="104.27"/></clipPath><clipPath id="clip-path-2"><rect class="cls-1" x="89.62" y="40.04" width="32.01" height="26.82"/></clipPath><clipPath id="clip-path-3"><rect class="cls-1" x="128.02" y="40.04" width="32.01" height="26.82"/></clipPath></defs><title>2-step-1</title><g class="cls-2"><g id="圖層_2" data-name="圖層 2"><g id="圖層_1-2" data-name="圖層 1"><g class="cls-3"><path class="cls-4" d="M236.78,173.24H6.22c-4.56,0-7.18-1.3-5.89-2.88l32.49-39.64c.68-.83,3.84-1.49,7.07-1.49H203.11c3.23,0,6.39.66,7.07,1.49l32.49,39.64C244,171.94,241.34,173.24,236.78,173.24Z"/></g><rect class="cls-5" x="34.05" width="174.91" height="123.66" rx="6" ry="6"/><rect class="cls-6" x="60.25" y="-25.14" width="122.5" height="173.93" rx="5.5" ry="5.5" transform="translate(183.33 -59.67) rotate(90)"/><rect class="cls-5" x="41.78" y="9.69" width="159.44" height="104.27"/><path class="cls-7" d="M243,164.18h-1.64v1.17l-31.18-38c-.68-.83-3.84-1.49-7.07-1.49H39.89c-3.23,0-6.39.66-7.07,1.49L2.55,164.24H0v3.53H0c0,1.19,2.47,2.06,6.21,2.06H236.78c3.75,0,6.18-.88,6.21-2.07h0Z"/><path class="cls-5" d="M236.78,166.26H6.22c-4.56,0-7.18-1.3-5.89-2.88l32.49-39.64c.68-.83,3.84-1.49,7.07-1.49H203.11c3.23,0,6.39.66,7.07,1.49l32.49,39.64C244,165,241.34,166.26,236.78,166.26Z"/><path class="cls-7" d="M217.92,147.83H25.08c-1.34,0-2.16-.34-1.86-.75l16.3-21.82a4.14,4.14,0,0,1,2.38-.51H201.1a4.14,4.14,0,0,1,2.38.51l16.3,21.82C220.08,147.49,219.26,147.83,217.92,147.83Z"/><path class="cls-7" d="M150.38,163.85H92.62c-1.49,0-2.61-.42-2.5-.94l2.56-12c.09-.44,1.27-.79,2.62-.79h52.4c1.35,0,2.53.35,2.62.79l2.56,12C153,163.43,151.87,163.85,150.38,163.85Z"/><path class="cls-6" d="M45.08,137.05H35.22a2.06,2.06,0,0,0-1.38.38l-2.21,3.07c-.16.22.22.4.85.4H52.84c.63,0,1.24-.18,1.36-.4l1.66-3.07c.11-.21-.3-.38-.91-.38Z"/><path class="cls-6" d="M67.48,140.9h-9c-.63,0-1.06-.15-1-.34l1.64-3.19c.09-.18.66-.32,1.27-.32h8.76c.61,0,1,.14,1,.32l-1.35,3.19C68.69,140.75,68.11,140.9,67.48,140.9Z"/><path class="cls-6" d="M82.11,140.9h-9c-.64,0-1.09-.15-1-.34l1.26-3.19c.07-.18.62-.32,1.23-.32h8.76c.61,0,1.07.14,1,.32l-1,3.19C83.3,140.75,82.74,140.9,82.11,140.9Z"/><path class="cls-6" d="M96.75,140.9h-9c-.63,0-1.1-.15-1-.34l.89-3.19c0-.18.59-.32,1.2-.32h8.76c.61,0,1.08.14,1,.32l-.6,3.19C97.92,140.75,97.38,140.9,96.75,140.9Z"/><path class="cls-6" d="M126,140.9h-9c-.63,0-1.14-.15-1.13-.34l.15-3.19c0-.18.51-.32,1.12-.32h8.76c.61,0,1.11.14,1.12.32l.15,3.19C127.16,140.75,126.65,140.9,126,140.9Z"/><path class="cls-6" d="M111.38,140.9h-9c-.63,0-1.12-.15-1.09-.34l.51-3.19c0-.18.55-.32,1.16-.32h8.76c.62,0,1.1.14,1.09.32l-.23,3.19C112.54,140.75,112,140.9,111.38,140.9Z"/><path class="cls-6" d="M140.65,140.9h-9c-.63,0-1.16-.15-1.17-.34l-.23-3.19c0-.18.47-.32,1.09-.32h8.76c.61,0,1.13.14,1.16.32l.51,3.19C141.77,140.75,141.29,140.9,140.65,140.9Z"/><path class="cls-6" d="M155.29,140.9h-9c-.63,0-1.17-.15-1.21-.34l-.6-3.19c0-.18.44-.32,1.05-.32h8.76c.61,0,1.15.14,1.2.32l.89,3.19C156.39,140.75,155.92,140.9,155.29,140.9Z"/><path class="cls-6" d="M169.92,140.9h-9c-.63,0-1.19-.15-1.25-.34l-1-3.19c-.06-.18.4-.32,1-.32h8.76c.61,0,1.16.14,1.23.32l1.26,3.19C171,140.75,170.56,140.9,169.92,140.9Z"/><path class="cls-6" d="M184.56,140.9h-9c-.63,0-1.21-.15-1.28-.34l-1.35-3.19c-.08-.18.36-.32,1-.32h8.76c.61,0,1.18.14,1.27.32l1.64,3.19C185.62,140.75,185.19,140.9,184.56,140.9Z"/><path class="cls-6" d="M51.13,146.25H42.89c-.66,0-1.1-.17-1-.37L44,142.42a2,2,0,0,1,1.37-.35h8c.63,0,1.07.15,1,.35l-1.84,3.46A2,2,0,0,1,51.13,146.25Z"/><path class="cls-6" d="M37.05,146.25H28.68c-.66,0-1.07-.17-.93-.37l2.5-3.46a2.13,2.13,0,0,1,1.4-.35h8.1c.64,0,1.06.15.93.35l-2.2,3.46A2.17,2.17,0,0,1,37.05,146.25Z"/><path class="cls-6" d="M65.17,146.25H57c-.66,0-1.11-.17-1-.37l1.74-3.46c.09-.2.69-.35,1.33-.35H67c.64,0,1.09.15,1,.35l-1.46,3.46C66.43,146.08,65.83,146.25,65.17,146.25Z"/><path class="cls-6" d="M200.27,146.25H192a2,2,0,0,1-1.39-.37l-1.83-3.46c-.11-.2.33-.35,1-.35h8a2,2,0,0,1,1.37.35l2.12,3.46C201.36,146.08,200.93,146.25,200.27,146.25Z"/><path class="cls-6" d="M186.19,146.25h-8.36c-.66,0-1.26-.17-1.35-.37l-.59-1.4c-.08-.2.38-.36,1-.36h8.23c.65,0,1.26.16,1.36.36l.7,1.4C187.3,146.08,186.85,146.25,186.19,146.25Z"/><path class="cls-6" d="M214.32,146.25h-8.21a2.17,2.17,0,0,1-1.43-.37l-.89-1.4c-.13-.2.3-.36.94-.36h8.08a2.23,2.23,0,0,1,1.43.36l1,1.4C215.39,146.08,215,146.25,214.32,146.25Z"/><path class="cls-6" d="M80.43,146.25H71c-.66,0-1.13-.17-1.05-.37l1.37-3.46c.08-.2.66-.35,1.29-.35h9.12c.64,0,1.11.15,1.05.35l-1.05,3.46C81.67,146.08,81.09,146.25,80.43,146.25Z"/><path class="cls-6" d="M172,146.25h-9.42c-.66,0-1.24-.17-1.31-.37l-1-3.46c-.06-.2.41-.35,1-.35h9.12c.63,0,1.21.15,1.29.35l1.37,3.46C173.12,146.08,172.65,146.25,172,146.25Z"/><path class="cls-6" d="M197.92,137.05h-9.87c-.61,0-1,.17-.91.38l1.66,3.07c.12.22.73.4,1.36.4h20.36c.63,0,1-.18.85-.4l-2.21-3.07a2.06,2.06,0,0,0-1.38-.38Z"/><path class="cls-6" d="M44.91,132.41h-6.4a2,2,0,0,0-1.32.35l-2,2.84c-.15.2.23.37.83.37H49.17a1.9,1.9,0,0,0,1.32-.37l1.68-2.84c.11-.19-.27-.35-.86-.35Z"/><path class="cls-6" d="M77.29,136H68.61c-.6,0-1-.14-1-.31L69,132.71c.07-.17.6-.3,1.19-.3H78.6c.59,0,1,.13,1,.3l-1.06,2.95C78.44,135.83,77.9,136,77.29,136Z"/><path class="cls-6" d="M63.23,136H54.55c-.6,0-1-.14-.92-.31l1.67-2.95c.09-.17.64-.3,1.23-.3H65c.59,0,1,.13.93.3l-1.4,2.95C64.4,135.83,63.84,136,63.23,136Z"/><path class="cls-6" d="M91.35,136H82.67c-.61,0-1-.14-1-.31l1-2.95c.06-.17.58-.3,1.17-.3h8.42c.59,0,1,.13,1,.3l-.71,2.95C92.48,135.83,92,136,91.35,136Z"/><path class="cls-6" d="M105.41,136H96.73c-.61,0-1.07-.14-1-.31l.63-2.95c0-.17.54-.3,1.13-.3h8.43c.59,0,1,.13,1,.3l-.37,2.95C106.53,135.83,106,136,105.41,136Z"/><path class="cls-6" d="M133.53,136h-8.68c-.61,0-1.1-.14-1.1-.31l-.06-2.95c0-.17.47-.3,1.06-.3h8.43c.58,0,1.08.13,1.09.3l.33,2.95C134.61,135.83,134.14,136,133.53,136Z"/><path class="cls-6" d="M119.47,136h-8.68c-.61,0-1.08-.14-1.07-.31l.29-2.95c0-.17.51-.3,1.1-.3h8.42c.59,0,1.07.13,1.07.3l0,2.95C120.57,135.83,120.08,136,119.47,136Z"/><path class="cls-6" d="M147.59,136h-8.68c-.61,0-1.12-.14-1.14-.31l-.4-2.95c0-.17.44-.3,1-.3h8.42c.59,0,1.1.13,1.13.3l.67,2.95C148.66,135.83,148.2,136,147.59,136Z"/><path class="cls-6" d="M161.65,136H153c-.61,0-1.14-.14-1.18-.31l-.74-2.95c0-.17.4-.3,1-.3h8.42c.59,0,1.12.13,1.17.3l1,2.95C162.7,135.83,162.26,136,161.65,136Z"/><path class="cls-6" d="M175.71,136H167c-.61,0-1.15-.14-1.22-.31l-1.08-2.95c-.06-.17.36-.3,1-.3h8.43c.59,0,1.13.13,1.2.3l1.35,2.95C176.74,135.83,176.32,136,175.71,136Z"/><path class="cls-6" d="M189.77,136h-8.68c-.61,0-1.17-.14-1.25-.31l-1.43-2.95c-.08-.17.33-.3.92-.3h8.42c.59,0,1.15.13,1.24.3l1.7,2.95C190.79,135.83,190.38,136,189.77,136Z"/><path class="cls-6" d="M62.48,127.19H54.79c-.56,0-.94-.12-.85-.27l.62-1c.08-.15.61-.26,1.16-.26H63.3c.56,0,1,.11.87.26l-.53,1C63.56,127.07,63.05,127.19,62.48,127.19Z"/><path class="cls-6" d="M49.91,127.19H42.22c-.56,0-.93-.12-.83-.27l.74-1a2,2,0,0,1,1.19-.26h7.59c.55,0,.93.11.84.26l-.65,1A1.92,1.92,0,0,1,49.91,127.19Z"/><path class="cls-6" d="M75.06,127.19h-7.7c-.56,0-1-.12-.88-.27l.5-1c.08-.15.58-.26,1.14-.26H75.7c.56,0,1,.11.9.26l-.42,1C76.12,127.07,75.62,127.19,75.06,127.19Z"/><path class="cls-6" d="M87.63,127.19H79.94c-.57,0-1-.12-.92-.27l.39-1c.06-.15.55-.26,1.11-.26H88.1c.55,0,1,.11.93.26l-.3,1C88.68,127.07,88.19,127.19,87.63,127.19Z"/><path class="cls-6" d="M112.77,127.19h-7.69c-.56,0-1-.12-1-.27l.16-1c0-.15.49-.26,1-.26h7.58c.56,0,1,.11,1,.26l-.07,1C113.8,127.07,113.34,127.19,112.77,127.19Z"/><path class="cls-6" d="M100.2,127.19H92.51c-.56,0-1-.12-1-.27l.28-1c0-.15.52-.26,1.07-.26h7.59c.55,0,1,.11,1,.26l-.18,1C101.24,127.07,100.76,127.19,100.2,127.19Z"/><path class="cls-6" d="M125.35,127.19h-7.7c-.56,0-1-.12-1-.27l0-1c0-.15.46-.26,1-.26h7.58c.56,0,1,.11,1,.26l0,1C126.36,127.07,125.91,127.19,125.35,127.19Z"/><path class="cls-6" d="M137.92,127.19h-7.69c-.57,0-1-.12-1-.27l-.07-1c0-.15.43-.26,1-.26h7.58c.55,0,1,.11,1,.26l.16,1C138.92,127.07,138.48,127.19,137.92,127.19Z"/><path class="cls-6" d="M150.49,127.19H142.8c-.56,0-1-.12-1.07-.27l-.18-1c0-.15.4-.26.95-.26h7.59c.55,0,1,.11,1.07.26l.28,1C151.48,127.07,151.05,127.19,150.49,127.19Z"/><path class="cls-6" d="M163.06,127.19h-7.69c-.56,0-1.05-.12-1.1-.27l-.3-1c0-.15.38-.26.93-.26h7.58c.56,0,1.05.11,1.11.26l.39,1C164,127.07,163.63,127.19,163.06,127.19Z"/><path class="cls-6" d="M175.64,127.19h-7.7c-.56,0-1.06-.12-1.12-.27l-.42-1c-.06-.15.34-.26.9-.26h7.58c.56,0,1.06.11,1.14.26l.5,1C176.59,127.07,176.2,127.19,175.64,127.19Z"/><path class="cls-6" d="M188.21,127.19h-7.69c-.57,0-1.08-.12-1.16-.27l-.53-1c-.08-.15.31-.26.87-.26h7.58c.55,0,1.08.11,1.16.26l.62,1C189.15,127.07,188.77,127.19,188.21,127.19Z"/><path class="cls-6" d="M200.78,127.19h-7.69a1.92,1.92,0,0,1-1.19-.27l-.65-1c-.09-.15.29-.26.84-.26h7.59a2,2,0,0,1,1.19.26l.74,1C201.71,127.07,201.34,127.19,200.78,127.19Z"/><path class="cls-6" d="M198.73,132.41H193c-.59,0-1,.16-.85.35l1.71,2.84a1.9,1.9,0,0,0,1.32.37H207c.6,0,1-.17.83-.37l-2-2.84a2,2,0,0,0-1.32-.35Z"/><path class="cls-6" d="M47.73,128.12H41.56a2,2,0,0,0-1.26.32l-1.89,2.63c-.14.19.23.34.81.34h9.52a1.87,1.87,0,0,0,1.27-.34l1.63-2.63c.11-.18-.26-.32-.83-.32Z"/><path class="cls-6" d="M75.79,131.41H67.44c-.58,0-1-.13-.92-.29l1.3-2.73c.07-.15.59-.27,1.16-.27h8.11c.57,0,1,.12.93.27L77,131.12C76.9,131.28,76.38,131.41,75.79,131.41Z"/><path class="cls-6" d="M62.27,131.41H53.91c-.58,0-1-.13-.88-.29l1.62-2.73a1.88,1.88,0,0,1,1.19-.27H64c.57,0,1,.12.89.27l-1.37,2.73C63.39,131.28,62.85,131.41,62.27,131.41Z"/><path class="cls-6" d="M89.32,131.41H81c-.58,0-1-.13-1-.29l1-2.73c0-.15.56-.27,1.12-.27h8.12c.56,0,1,.12,1,.27l-.73,2.73C90.41,131.28,89.91,131.41,89.32,131.41Z"/><path class="cls-6" d="M102.85,131.41H94.5c-.59,0-1-.13-1-.29l.66-2.73c0-.15.53-.27,1.1-.27h8.11c.57,0,1,.12,1,.27l-.42,2.73C103.93,131.28,103.43,131.41,102.85,131.41Z"/><path class="cls-6" d="M129.9,131.41h-8.35c-.58,0-1-.13-1-.29l0-2.73c0-.15.46-.27,1-.27h8.12c.56,0,1,.12,1,.27l.23,2.73C131,131.28,130.49,131.41,129.9,131.41Z"/><path class="cls-6" d="M116.38,131.41H108c-.58,0-1-.13-1-.29l.35-2.73c0-.15.49-.27,1.06-.27h8.11c.57,0,1,.12,1,.27l-.1,2.73C117.44,131.28,117,131.41,116.38,131.41Z"/><path class="cls-6" d="M143.43,131.41h-8.35c-.58,0-1.07-.13-1.09-.29l-.29-2.73c0-.15.43-.27,1-.27h8.12c.57,0,1.05.12,1.08.27l.54,2.73C144.46,131.28,144,131.41,143.43,131.41Z"/><path class="cls-6" d="M157,131.41h-8.35c-.59,0-1.09-.13-1.13-.29l-.61-2.73c0-.15.4-.27,1-.27H156c.57,0,1.07.12,1.11.27l.87,2.73C158,131.28,157.54,131.41,157,131.41Z"/><path class="cls-6" d="M170.49,131.41h-8.36c-.58,0-1.1-.13-1.15-.29l-.94-2.73c0-.15.37-.27.94-.27h8.11c.57,0,1.08.12,1.15.27l1.18,2.73C171.49,131.28,171.07,131.41,170.49,131.41Z"/><path class="cls-6" d="M184,131.41h-8.35c-.58,0-1.11-.13-1.19-.29l-1.25-2.73c-.07-.15.33-.27.9-.27h8.12c.56,0,1.09.12,1.17.27l1.5,2.73C185,131.28,184.6,131.41,184,131.41Z"/><path class="cls-6" d="M192.81,128.12h-5.55c-.56,0-.94.14-.84.32l1.52,2.63c.1.19.67.34,1.25.34h14.59c.58,0,.95-.15.81-.34l-1.89-2.63a2,2,0,0,0-1.26-.32Z"/><path class="cls-6" d="M156.73,146.25H86.27c-.66,0-1.15-.17-1.09-.37l1-3.46c0-.2.61-.35,1.25-.35h68.2c.64,0,1.2.15,1.26.35l1,3.46C157.88,146.08,157.39,146.25,156.73,146.25Z"/><g class="cls-8"><image width="3210" height="1630" transform="translate(18.67 7.94) scale(0.07)" xlink:href="../../../../螢幕快照 2019-06-19 下午2.47.44.png"/></g><rect class="cls-5" x="71.69" y="34.85" width="99.86" height="52.49"/><rect class="cls-7" x="87.06" y="36.13" width="35.85" height="48.65"/><rect class="cls-5" x="89.62" y="39.97" width="29.45" height="26.88"/><g class="cls-9"><path class="cls-10" d="M111,60.63a4.36,4.36,0,0,0-2-3.33c-.76-.39.18,3.75.19,3.91.42,4.71,2.43,10.06,3.43,11.48l1.63-.17A31.73,31.73,0,0,1,111,60.63Z"/><rect class="cls-11" x="108.65" y="69.69" width="8.11" height="5.46" rx="0.85" ry="0.85" transform="translate(-17.1 39.27) rotate(-18.4)"/><rect class="cls-12" x="109.83" y="69.83" width="6.62" height="4.89" transform="translate(-17.03 39.41) rotate(-18.4)"/><path class="cls-13" d="M109.87,73.35a.29.29,0,0,0-.38-.18.3.3,0,1,0,.38.18Z"/><path class="cls-13" d="M117.14,72.93,116,69.36a.85.85,0,0,0-1.08-.54l-6.08,2a.85.85,0,0,0-.54,1.08l1.19,3.57a.85.85,0,0,0,1.07.53l6.09-2A.85.85,0,0,0,117.14,72.93Zm-6.71,2.82a.57.57,0,0,1-.71-.36l-1.18-3.56a.56.56,0,0,1,.35-.71l6.08-2a.56.56,0,0,1,.71.35L116.87,73a.56.56,0,0,1-.36.7Z"/><g class="cls-14"><path class="cls-15" d="M114.72,70.63a.1.1,0,0,1-.13-.06l-.16-.47a.1.1,0,0,1,.07-.13l.46-.16a.11.11,0,0,1,.14.07l.15.47a.1.1,0,0,1-.06.13Z"/><path class="cls-16" d="M115,71.49a.1.1,0,0,1-.13-.07l-.16-.47a.12.12,0,0,1,.07-.13l.47-.15a.1.1,0,0,1,.13.06l.16.47c0,.06,0,.12-.07.13Z"/><path class="cls-17" d="M115.29,72.34a.11.11,0,0,1-.14-.06l-.15-.47a.1.1,0,0,1,.06-.13l.47-.16a.11.11,0,0,1,.14.07l.15.47a.1.1,0,0,1-.07.13Z"/><path class="cls-18" d="M115.57,73.2a.1.1,0,0,1-.13-.07l-.16-.47a.1.1,0,0,1,.07-.13l.47-.15a.1.1,0,0,1,.13.06l.16.47A.11.11,0,0,1,116,73Z"/><path class="cls-17" d="M113.83,70.93a.1.1,0,0,1-.13-.07l-.16-.47a.1.1,0,0,1,.07-.13l.47-.15a.1.1,0,0,1,.13.06l.16.47a.11.11,0,0,1-.07.13Z"/><path class="cls-18" d="M114.11,71.78a.1.1,0,0,1-.13-.06l-.15-.47a.1.1,0,0,1,.06-.13l.47-.16a.09.09,0,0,1,.13.07l.16.47a.1.1,0,0,1-.07.13Z"/><path class="cls-15" d="M114.4,72.64a.1.1,0,0,1-.13-.07l-.16-.47a.1.1,0,0,1,.07-.13l.47-.15a.1.1,0,0,1,.13.06l.15.47a.1.1,0,0,1-.06.13Z"/><path class="cls-16" d="M114.68,73.49a.1.1,0,0,1-.13-.06L114.4,73a.1.1,0,0,1,.06-.13l.47-.16a.1.1,0,0,1,.13.07l.16.47a.1.1,0,0,1-.07.13Z"/><path class="cls-18" d="M110,72.21a.1.1,0,0,1-.13-.06l-.15-.47a.1.1,0,0,1,.06-.13l.47-.16a.09.09,0,0,1,.13.07l.16.46a.11.11,0,0,1-.07.14Z"/><path class="cls-17" d="M110.26,73.07a.1.1,0,0,1-.13-.07l-.16-.47a.1.1,0,0,1,.07-.13l.47-.16a.12.12,0,0,1,.13.07l.15.47a.1.1,0,0,1-.06.13Z"/><path class="cls-16" d="M110.54,73.92a.1.1,0,0,1-.13-.06l-.15-.47a.1.1,0,0,1,.06-.13l.47-.16a.1.1,0,0,1,.13.07l.16.46a.11.11,0,0,1-.07.14Z"/><path class="cls-15" d="M110.83,74.78a.09.09,0,0,1-.13-.07l-.16-.47a.1.1,0,0,1,.07-.13l.47-.16a.12.12,0,0,1,.13.07l.15.47a.1.1,0,0,1-.06.13Z"/><path class="cls-16" d="M113,71.22a.1.1,0,0,1-.13-.06l-.16-.47a.11.11,0,0,1,.07-.13l.47-.16a.1.1,0,0,1,.13.06l.16.47a.12.12,0,0,1-.07.14Z"/><path class="cls-15" d="M113.8,73.79a.1.1,0,0,1-.13-.07l-.15-.47a.1.1,0,0,1,.06-.13l.47-.16a.11.11,0,0,1,.13.07l.16.47a.1.1,0,0,1-.07.13Z"/></g><polygon class="cls-19" points="113.93 74.58 116.4 73.76 110.03 70.74 109.23 71.01 109.77 72.63 113.93 74.58"/><path class="cls-19" d="M111.77,70.16l-1.26.42,6.27,3a.55.55,0,0,0,.08-.53l-.16-.5Z"/><path class="cls-20" d="M105.85,69.36c0-1.33,1.59-.59,2-.3.9.61,1.71,2.33,1.74,4.72,0,4.67-1.75,13.59-2.88,18.1H104.9C105.3,84.89,105.88,71.25,105.85,69.36Z"/><path class="cls-20" d="M101.34,74.1c.13-3.4.68-4.74,1.58-5.36.42-.29,2.83.44,2.81,1.78,0,1.89-.84,14.37-1.31,21.36h-1.9C102.1,85.56,101.23,77,101.34,74.1Z"/><path class="cls-21" d="M111.51,54.58H101c-3.09-3.1-1.66-8.66-1.66-8.66.75-3.48,3.08-5,5.58-5l.61,0a5,5,0,0,1,4.82,5.42S109.67,53.27,111.51,54.58Z"/><path class="cls-20" d="M102,75.54a55.38,55.38,0,0,0,.17-8.14l6.33,0s.74,4.87,1.13,8.32Z"/><path class="cls-22" d="M109.67,58.53a4.16,4.16,0,0,0-1.06-1.19,5.8,5.8,0,0,0-3.55-1.1h-.15a6,6,0,0,0-3.58,1.25,4.14,4.14,0,0,0-1,1.23s1.73,7.86,2.07,9.23h6.3S109.67,58.53,109.67,58.53Z"/><g class="cls-23"><path class="cls-24" d="M103,56.62a7,7,0,0,1,.87-.26L105,57.47l1-1.17a4.93,4.93,0,0,1,.9.2l-1.16,2.69-.7-1.57L105.5,68h-.1l-.46-10.35c-.19.42-.64,1.62-.64,1.62Z"/></g><path class="cls-5" d="M104.9,59.18a.13.13,0,1,1-.25,0,.13.13,0,0,1,.25,0Z"/><path class="cls-5" d="M105,61.9a.12.12,0,0,1-.12.12.12.12,0,0,1-.12-.13.11.11,0,0,1,.12-.11A.11.11,0,0,1,105,61.9Z"/><path class="cls-5" d="M105.09,64.76a.12.12,0,0,1-.13.12.11.11,0,0,1-.11-.12.12.12,0,0,1,.12-.12A.12.12,0,0,1,105.09,64.76Z"/><path class="cls-5" d="M105.09,67.26a.12.12,0,0,1-.13.12.12.12,0,0,1-.11-.13.12.12,0,0,1,.12-.12A.12.12,0,0,1,105.09,67.26Z"/><path class="cls-25" d="M109.52,49.64a.84.84,0,0,0,.87-.81.85.85,0,0,0-.81-.87l-.63,0a.85.85,0,0,0-.86.82.83.83,0,0,0,.81.86Z"/><g class="cls-3"><path class="cls-26" d="M109.54,49.1a.3.3,0,0,0,.3-.29.29.29,0,0,0-.28-.3l-.62,0a.3.3,0,1,0,0,.59Z"/></g><path class="cls-25" d="M101.2,49.39a.84.84,0,0,0,0-1.68l-.63,0a.84.84,0,0,0-.86.81.85.85,0,0,0,.81.87Z"/><g class="cls-3"><path class="cls-26" d="M101.21,48.84a.29.29,0,0,0,0-.58l-.62,0a.29.29,0,0,0,0,.58Z"/></g><path class="cls-27" d="M103.45,56.8c0,.6.67.62,1.55.64s1.19,0,1.21-.55c0-.86.11-3.4.11-3.4l-2.76-.09S103.48,55.91,103.45,56.8Z"/><path class="cls-28" d="M106.26,55.05a4,4,0,0,1-1.42.23A4.27,4.27,0,0,1,103.5,55c0-.81,0-1.6,0-1.6l2.76.09S106.28,54.26,106.26,55.05Z"/><path class="cls-27" d="M105.27,42.34c2.23.07,4,1.5,3.93,3.73l-.11,3.5,0,.93a4.06,4.06,0,1,1-8.08-.25l0-.93.11-3.5C101.19,43.59,103,42.27,105.27,42.34Z"/><g class="cls-3"><path class="cls-29" d="M109.05,44.72s-2.37-2-5.47,2.53a3.73,3.73,0,0,1-3.5,1.8s.75-5.59,1.8-6,3.47-1.11,4.58-.78C109.59,43.24,109.05,44.72,109.05,44.72Z"/></g><path class="cls-28" d="M105.63,49.83a.8.8,0,0,1-.55.14,1.29,1.29,0,0,1-.63-.16.65.65,0,0,0,.58.51A.55.55,0,0,0,105.63,49.83Z"/><g class="cls-30"><path class="cls-31" d="M106.54,49.75a.43.43,0,0,0,.41.43l.92,0a.41.41,0,0,0,.43-.4h0a.4.4,0,0,0-.41-.43l-.91,0a.42.42,0,0,0-.44.4Z"/></g><g class="cls-30"><path class="cls-31" d="M101.79,49.61a.41.41,0,0,0,.4.43l.92,0a.41.41,0,0,0,.43-.4h0a.41.41,0,0,0-.4-.43l-.92,0a.42.42,0,0,0-.43.41Z"/></g><path class="cls-5" d="M106.83,51a3.88,3.88,0,0,1-1.81.32,4.27,4.27,0,0,1-1.84-.43,1.91,1.91,0,0,0,1.8,1.62A1.86,1.86,0,0,0,106.83,51Z"/><path class="cls-32" d="M102.54,48.21a.48.48,0,0,0,.95,0,.47.47,0,0,0-.46-.49A.48.48,0,0,0,102.54,48.21Z"/><path class="cls-33" d="M103.1,47.88l-1,0Z"/><path class="cls-32" d="M103.1,48a.13.13,0,0,0,.13-.12.15.15,0,0,0-.13-.14l-1,0a.13.13,0,0,0,0,.26l1,0Z"/><path class="cls-32" d="M107.63,48.37a.47.47,0,0,1-.49.46.48.48,0,0,1-.46-.49.49.49,0,0,1,.49-.47A.48.48,0,0,1,107.63,48.37Z"/><path class="cls-33" d="M107.1,48l1,0Z"/><path class="cls-32" d="M108.12,48.17a.13.13,0,0,0,.13-.13.12.12,0,0,0-.12-.13l-1,0A.12.12,0,0,0,107,48a.13.13,0,0,0,.12.14l1,0Z"/><path class="cls-5" d="M103.44,55.76,105,57.45s-.67,1.43-.67,1.43L103,56.58Z"/><polygon class="cls-5" points="106.34 55.69 104.97 57.45 105.75 58.88 106.9 56.5 106.34 55.69"/><g class="cls-34"><rect class="cls-35" x="103.08" y="68.71" width="4.32" height="0.2"/></g><path class="cls-36" d="M103,69.4a16.72,16.72,0,0,0,.56,3.77,14.4,14.4,0,0,1-2-1.13A3.66,3.66,0,0,1,103,69.4Z"/><path class="cls-36" d="M107.87,69.06a5.63,5.63,0,0,1,1.86,4,4,4,0,0,1-2.11.71s0-2,0-4.8Z"/><path class="cls-10" d="M103.57,72.85c-1.21-2-2.85-1.08-3.35-1.75a48,48,0,0,0,.28-5.66,20.21,20.21,0,0,0-1-6.22,5,5,0,0,1,1.5-1.6,14.3,14.3,0,0,1,2.09-1.14,61.51,61.51,0,0,0,.34,13.32A11.74,11.74,0,0,1,103.57,72.85Z"/><path class="cls-10" d="M107.51,73.29c2.18-.11,2.33-.54,2.61-1.31,0,0,0-3.37.16-6.51a39.49,39.49,0,0,0-.32-6.73,2.18,2.18,0,0,0-1.09-1.51,5.72,5.72,0,0,0-1.64-.73s.13,7.54.18,13.34A23.38,23.38,0,0,0,107.51,73.29Z"/><g class="cls-23"><polygon class="cls-37" points="107.28 56.55 107.41 69.84 109.14 63 108.03 61.99 109.34 61.18 108.56 56.98 107.28 56.55"/></g><g class="cls-23"><polygon class="cls-24" points="102.97 56.55 103.39 69.8 101.39 63.07 102.45 62.02 101.12 61.26 101.75 57.13 102.97 56.55"/></g><polygon class="cls-38" points="107.2 56.43 107.41 69.84 108.94 63 107.84 61.99 109.14 61.18 108.48 56.86 107.2 56.43"/><polygon class="cls-38" points="103.04 56.37 103.39 69.8 103.39 69.75 101.59 63.07 102.65 62.02 101.32 61.26 101.82 56.91 103.04 56.37"/><path class="cls-32" d="M106.81,47.06h1.13a.15.15,0,0,0,.15-.15.15.15,0,0,0-.15-.14h-1.13a.14.14,0,0,0-.14.14A.15.15,0,0,0,106.81,47.06Z"/><path class="cls-32" d="M102.32,47.06h1.13a.15.15,0,0,0,.14-.15.14.14,0,0,0-.14-.14h-1.13a.15.15,0,0,0-.15.14A.15.15,0,0,0,102.32,47.06Z"/><path class="cls-21" d="M109.57,45.11s-3.16-3-5.25.39c-2.39,3.87-4.85,3.38-4.85,3.38s1.5-6,2.56-6.34,3.49-1.09,4.59-.71A4,4,0,0,1,109.57,45.11Z"/><path class="cls-27" d="M101.23,71.46a.67.67,0,0,0,.58.34,5.37,5.37,0,0,1,1.42.5s0,.36-.27.31-.86-.42-.84-.18a1.49,1.49,0,0,0,.39.59l-.68,1a16.73,16.73,0,0,1-1.17-2C100.56,71.68,101.23,71.46,101.23,71.46Z"/><path class="cls-10" d="M101.06,57.66a4.78,4.78,0,0,0-1,.74c-2,2.36-5.17,8.75.94,14.62l.82-1.34c-.36-.36-4.69-4.69-1.22-9.25a3.45,3.45,0,0,0,.35-1.54C101.08,59.92,101.39,57.65,101.06,57.66Z"/></g><rect class="cls-7" x="125.46" y="36.13" width="35.85" height="48.65"/><rect class="cls-5" x="128.02" y="39.97" width="29.45" height="26.88"/><g class="cls-39"><path class="cls-40" d="M146.48,70.7,143.66,69l-4.07,1.78s-.93.55-1.08,3.95c-.09,2,1.86,18.69,1.86,18.69l2.27-.18,1-16.52,5,18.53,2.2-.62s-2.39-17.93-2.53-19.81A5.44,5.44,0,0,0,146.48,70.7Z"/><path class="cls-41" d="M138.53,74.3h9.78c-.08-.69-.56-1.22-.67-1.69l-8.88-.06A12.74,12.74,0,0,0,138.53,74.3Z"/><path class="cls-42" d="M142,63.14c1.89,0,6.22-.57,8.13-2.64.06-.06-1.37-1.26-1.31-7l.14-7.32c0-3.34-2.59-5.25-5.74-5.25-3.45,0-5.15,2.38-5.14,5.72,0,0-.09,12.39,0,13.61C138.14,61.27,139,63,142,63.14Z"/><path class="cls-43" d="M148.36,73.92s-1-3.42-1.75-6.4a3.67,3.67,0,0,1,.47-2.26,7.54,7.54,0,0,0,.64-1.91,6.85,6.85,0,0,0-.4-2.68,5.84,5.84,0,0,0-.92-2.57,3.17,3.17,0,0,0-2-.89v-.14s-3.43,0-4.91,1.3a4.18,4.18,0,0,0-1.06,1.25s1.27,5.14,1.19,6.85c-.06,1.19-.62,3.47-.89,5.09s-.4,2.36-.4,2.36Z"/><path class="cls-27" d="M141.85,57.48c0,.62.57,1.14,1.48,1.13a1.26,1.26,0,0,0,1.37-1.32c0-.89,0-2.92,0-2.92h-2.84Z"/><g class="cls-44"><path class="cls-45" d="M144.7,56a4.29,4.29,0,0,1-1.46.27,4.06,4.06,0,0,1-1.39-.24V54.38h2.84S144.7,55.17,144.7,56Z"/></g><path class="cls-25" d="M147.89,50.29a.87.87,0,1,0,0-1.73h-.64a.87.87,0,0,0,0,1.74Z"/><g class="cls-3"><path class="cls-26" d="M147.89,49.69a.26.26,0,0,0,.25-.26.25.25,0,0,0-.26-.26h-.64a.26.26,0,0,0,0,.52Z"/></g><path class="cls-25" d="M139.28,50.31a.87.87,0,1,0,0-1.73h-.64a.87.87,0,1,0,0,1.73Z"/><g class="cls-3"><path class="cls-26" d="M139.28,49.7a.26.26,0,1,0,0-.51h-.64a.25.25,0,0,0-.26.25.26.26,0,0,0,.26.26Z"/></g><path class="cls-27" d="M143.25,42.91c2.3,0,4.17,1.41,4.18,3.71v4.57a4.19,4.19,0,1,1-8.35,0V46.64C139.08,44.33,141,42.91,143.25,42.91Z"/><path class="cls-28" d="M143.87,50.62a.81.81,0,0,1-.56.16,1.38,1.38,0,0,1-.65-.14.67.67,0,0,0,.61.5A.57.57,0,0,0,143.87,50.62Z"/><g class="cls-30"><path class="cls-31" d="M144.82,50.51a.43.43,0,0,0,.43.43h.95a.44.44,0,0,0,.43-.44h0a.44.44,0,0,0-.44-.43h-.94a.43.43,0,0,0-.43.44Z"/></g><g class="cls-30"><path class="cls-31" d="M139.9,50.52a.43.43,0,0,0,.43.43h.95a.43.43,0,0,0,.43-.43h0a.43.43,0,0,0-.43-.43h-.95a.44.44,0,0,0-.43.44Z"/></g><g class="cls-46"><path class="cls-45" d="M140.66,43.58a3.38,3.38,0,0,1,2.59-.67c2.3,0,4.17,1.41,4.18,3.71v2.59c-.67-1.4-1-1.72-3.09-2.06C141.91,46.77,140.61,44.68,140.66,43.58Z"/></g><path class="cls-5" d="M145.15,51.76a4,4,0,0,1-1.86.38,4.41,4.41,0,0,1-1.91-.38,2,2,0,0,0,1.92,1.61A1.91,1.91,0,0,0,145.15,51.76Z"/><path class="cls-42" d="M140.48,47.58h1.29a.14.14,0,0,0,.14-.14.13.13,0,0,0-.14-.13h-1.29a.13.13,0,0,0-.13.14A.13.13,0,0,0,140.48,47.58Z"/><path class="cls-42" d="M144.82,47.58h1.29a.14.14,0,0,0,.14-.14.13.13,0,0,0-.14-.13h-1.29a.14.14,0,0,0-.14.14A.14.14,0,0,0,144.82,47.58Z"/><path class="cls-47" d="M140.63,49.05a.49.49,0,0,0,.49.49.5.5,0,0,0,.5-.49.51.51,0,0,0-.5-.49A.49.49,0,0,0,140.63,49.05Z"/><path class="cls-48" d="M141.2,48.69h0Z"/><path class="cls-47" d="M140.14,48.83h1.06a.13.13,0,0,0,.13-.14.14.14,0,0,0-.14-.13h-1.06a.14.14,0,0,0,0,.27Z"/><path class="cls-47" d="M145.89,49a.49.49,0,1,1-.49-.49A.49.49,0,0,1,145.89,49Z"/><path class="cls-48" d="M145.32,48.69h0Z"/><path class="cls-47" d="M145.32,48.82h1.06a.13.13,0,0,0,.14-.13.14.14,0,0,0-.14-.14h-1.06a.13.13,0,0,0-.13.14A.13.13,0,0,0,145.32,48.82Z"/><path class="cls-42" d="M144.51,46.72c2.87.31,2.88,2.15,3,1.83,1.41-7-5.09-8.85-7.07-5.81A4.57,4.57,0,0,0,144.51,46.72Z"/><path class="cls-43" d="M141,59.06c-.08-.88-.73-1.05-.89-1-2.83.88-3.53,8.07-3,10,.53,1.76,2-.1,1.93-.77a22.1,22.1,0,0,1,1-5.63A14.54,14.54,0,0,0,141,59.06Z"/><path class="cls-43" d="M144.67,59.06a1.13,1.13,0,0,1,1.18-1c3.72.88,4.65,8.07,3.88,10-.69,1.76-2.58-.1-2.54-.77.15-2-1.35-5.63-1.35-5.63A12.38,12.38,0,0,1,144.67,59.06Z"/><path class="cls-49" d="M139.2,68.27c0-.37.4-.89.58-.83s6,1.11,6,1.11v.3a1.6,1.6,0,0,1,1.06-.72,5.45,5.45,0,0,0,1.48-.53c.11-.07.32.21.06.51s-1.15.78-1.07.84a3.58,3.58,0,0,0,2.31.06c.19,0,.65.12,0,.55a3.61,3.61,0,0,1-2,.63h-.24s.07.35,0,.35a6.48,6.48,0,0,1-1.93-.24l0,.28S139.12,70.21,139.2,68.27Z"/><path class="cls-27" d="M144,68.72l1.73.26a1.08,1.08,0,0,1,.9-.61,5,5,0,0,0,1.47-.52c.12-.08.32.21.06.51s-1.15.78-1.07.83a3.59,3.59,0,0,0,2.31.07c.19-.05.66.11,0,.55a3.57,3.57,0,0,1-2,.62,21.87,21.87,0,0,1-3.9-.61Z"/><path class="cls-43" d="M138.71,66.67c.61,1.3,5.94,2,6.83,2.21l-.16,1.58c-1,0-8.31-.11-8.17-2.69C137.26,66.78,138.71,66.67,138.71,66.67Z"/></g><text class="cls-50" transform="translate(96.02 77.17)">玉山顧客</text><text class="cls-50" transform="translate(132.02 77.17)">非玉山顧客</text></g></g></g></svg>