<svg xmlns="http://www.w3.org/2000/svg" viewBox="0 0 170.05 153.97"><defs><style>.cls-1{fill:#fff;}.cls-2{fill:#c4c4c4;}.cls-3{fill:#e0e0e0;}.cls-4{fill:#ffb073;}.cls-5{fill:#4fb9c1;}.cls-6{fill:#fed3a6;}.cls-7{fill:#ffc197;}.cls-8{fill:#ffa05f;}.cls-9{fill:#f47187;}.cls-10{fill:#ea546d;}.cls-11{fill:#f26273;}.cls-12{fill:#323d5b;}.cls-13{fill:#394766;}.cls-14{fill:#29344c;}.cls-15{font-size:17.63px;font-family:SandyCove, Sandy Cove;}</style></defs><title>2-step-2</title><g id="圖層_2" data-name="圖層 2"><g id="圖層_1-2" data-name="圖層 1"><path class="cls-1" d="M22.11,13.08h0V154h92.12a10.39,10.39,0,0,0,10.39-10.39V12a12,12,0,0,1,12-12H35.19A13.08,13.08,0,0,0,22.11,13.08Z"/><path class="cls-2" d="M170.05,109.71V34.6H147.34v75.71a10.73,10.73,0,0,0,10.73,10.74h0A12,12,0,0,0,170.05,109.71Z"/><path class="cls-3" d="M147.34,110.31V10.74A10.74,10.74,0,0,0,136.6,0h0a12,12,0,0,0-12,12V121.05h33.45A10.73,10.73,0,0,1,147.34,110.31Z"/><path class="cls-3" d="M101.9,143.23v-20H0v20A10.74,10.74,0,0,0,10.74,154h101.9A10.74,10.74,0,0,1,101.9,143.23Z"/><path class="cls-4" d="M46.4,34.63H36.73a2.56,2.56,0,0,1-2.56-2.56V22.4a2.56,2.56,0,0,1,2.56-2.56H46.4A2.56,2.56,0,0,1,49,22.4v9.67A2.56,2.56,0,0,1,46.4,34.63Zm-9.67-13.3a1.07,1.07,0,0,0-1.07,1.07v9.67a1.07,1.07,0,0,0,1.07,1.07H46.4a1.07,1.07,0,0,0,1.07-1.07V22.4a1.07,1.07,0,0,0-1.07-1.07Z"/><polygon class="cls-5" points="41.78 32.39 36.58 24.63 38.57 23.3 41.36 27.47 47.13 14.52 49.3 15.49 41.78 32.39"/><rect class="cls-3" x="31.37" y="100.44" width="44.37" height="3.96"/><rect class="cls-3" x="31.37" y="80.92" width="81.27" height="3.96"/><rect class="cls-3" x="31.37" y="74.27" width="44.37" height="3.96"/><rect class="cls-3" x="31.37" y="54.75" width="81.27" height="3.96"/><rect class="cls-3" x="31.37" y="48.1" width="44.37" height="3.96"/><rect class="cls-3" x="56.32" y="28.58" width="56.32" height="3.96"/><rect class="cls-3" x="56.32" y="21.93" width="30.75" height="3.96"/><path class="cls-5" d="M94.46,77a1.78,1.78,0,0,1-.51.23.44.44,0,0,1-.48-.2c-.1-.25.13-.61-.08-.78s-.45.1-.69.12a.47.47,0,0,1-.39-.2L92.06,79a.24.24,0,0,0,.36.23l2.87-1.83a1,1,0,0,0,0-.39C95.17,76.6,94.67,76.9,94.46,77Z"/><path class="cls-6" d="M93.59,66.05,92.31,76.18a.47.47,0,0,0,.39.2c.24,0,.5-.27.69-.12s0,.53.08.78a.44.44,0,0,0,.48.2,1.78,1.78,0,0,0,.51-.23c.21-.11.71-.41.81,0a1,1,0,0,1,0,.39l7.9-5.47Z"/><polygon class="cls-7" points="95.74 69.46 93.59 66.05 120.66 21.52 123.74 23.39 95.74 69.46"/><polygon class="cls-4" points="99.22 71.57 98.2 69.26 95.68 69.42 123.68 23.36 127.22 25.5 99.22 71.57"/><polygon class="cls-8" points="103.19 71.89 99.22 71.57 127.22 25.5 130.26 27.35 103.19 71.89"/><path class="cls-9" d="M128.52,13.15a2.37,2.37,0,0,0-3.26.79l-2.56,4.21,3.14,1.91,3.79-6.24Z"/><path class="cls-10" d="M134.05,16.51l-1-.58-3.79,6.23,3,1.82,2.56-4.21A2.37,2.37,0,0,0,134.05,16.51Z"/><rect class="cls-11" x="125.82" y="15.96" width="7.3" height="4.06" transform="translate(46.85 119.28) rotate(-58.71)"/><polygon class="cls-12" points="125.81 20.04 123.74 23.39 127.24 25.52 129.29 22.16 125.81 20.04"/><polygon class="cls-13" points="122.7 18.15 120.66 21.52 123.74 23.39 125.81 20.04 122.7 18.15"/><polygon class="cls-14" points="132.29 23.98 129.29 22.16 127.24 25.52 130.25 27.35 132.29 23.98"/><text class="cls-15" transform="translate(80.18 109.22)">sign</text></g></g></svg>