<svg xmlns="http://www.w3.org/2000/svg" viewBox="0 0 19.05 16.83"><defs><style>.cls-1{fill:#d96761;}</style></defs><title>check</title><g id="圖層_2" data-name="圖層 2"><g id="圖層_1-2" data-name="圖層 1"><path class="cls-1" d="M18.22.13c-.86-.46-1.82.43-2.38,1-1.29,1.25-2.38,2.71-3.6,4S9.62,8,8.24,9.45A12,12,0,0,0,6.05,12.1,42.6,42.6,0,0,0,2.51,8.66C1.55,7.93,0,7.4,0,9.16c.07,2.28,2.08,4.73,3.57,6.28A3.79,3.79,0,0,0,6,16.83c1.15.07,2.34-1.32,3-2.08,1.22-1.33,2.21-2.81,3.34-4.17C13.82,8.79,15.31,7,16.73,5.22,17.63,4.1,20.44,1.32,18.22.13ZM1.46,9a.23.23,0,0,0-.14,0A2.6,2.6,0,0,1,1,8.93H1C1.06,8.86,1.22,8.89,1.46,9Z"/></g></g></svg>