<svg xmlns="http://www.w3.org/2000/svg" viewBox="0 0 25.4 41.66"><defs><style>.cls-1{fill:#009a95;}</style></defs><title>icon-qa</title><g id="圖層_2" data-name="圖層 2"><g id="圖層_1-2" data-name="圖層 1"><path class="cls-1" d="M12.7,41.66a5.07,5.07,0,1,1,3.6-1.49,6.18,6.18,0,0,1-.77.63,5.62,5.62,0,0,1-.88.46,4.94,4.94,0,0,1-1,.29A5.22,5.22,0,0,1,12.7,41.66Zm0-8.13a3.05,3.05,0,0,0-2.15,5.21,3.07,3.07,0,0,0,2.15.89,3.22,3.22,0,0,0,.6-.06,2.83,2.83,0,0,0,.56-.17,3.71,3.71,0,0,0,.55-.28,4.11,4.11,0,0,0,.47-.39,3,3,0,0,0-2.18-5.18Z"/><path class="cls-1" d="M12.7,30.48A5.09,5.09,0,0,1,7.62,25.4V20.32a5.09,5.09,0,0,1,5.08-5.08,2.54,2.54,0,1,0-2.54-2.54A5.08,5.08,0,0,1,0,12.7,12.7,12.7,0,1,1,17.78,24.34V25.4A5.09,5.09,0,0,1,12.7,30.48Zm0-22.35a4.57,4.57,0,1,1,0,9.14,3.05,3.05,0,0,0-3,3V25.4a3,3,0,0,0,6.1,0V23.65a1,1,0,0,1,.66-1A10.67,10.67,0,1,0,2,12.7a3,3,0,0,0,6.1,0A4.58,4.58,0,0,1,12.7,8.13Z"/></g></g></svg>