<svg xmlns="http://www.w3.org/2000/svg" viewBox="0 0 38 38"><defs><style>.cls-1{fill:#009a95;}</style></defs><title>icon-fix</title><g id="圖層_2" data-name="圖層 2"><g id="圖層_1-2" data-name="圖層 1"><path class="cls-1" d="M25.74,11.52a.74.74,0,1,0,.74.74A.74.74,0,0,0,25.74,11.52Z"/><path class="cls-1" d="M12.26,25a.74.74,0,1,0,.74.74A.74.74,0,0,0,12.26,25Z"/><path class="cls-1" d="M37.08,4.57a.74.74,0,0,0-.69.2l-3.08,3.1H31.83L30.21,6.18V4.69l3-3.08A.74.74,0,0,0,32.95.39a7.43,7.43,0,0,0-9.54,9l-5.47,5.47L8.83,5.68V3.89a.74.74,0,0,0-.36-.64L3.22.11a.74.74,0,0,0-.91.11L.22,2.32a.74.74,0,0,0-.11.91L3.25,8.47a.74.74,0,0,0,.64.36H5.68L14.79,18,9.34,23.41a7.34,7.34,0,0,0-6.25,1.15,7.42,7.42,0,0,0-2.7,8.39.74.74,0,0,0,1.23.29l3.08-3.1H6.18l1.69,1.69v1.48l-3.1,3.08a.74.74,0,0,0,.29,1.23,7.42,7.42,0,0,0,8.39-2.7,7.34,7.34,0,0,0,1.15-6.25L19,24.28l1,1.09-.46.46a.74.74,0,0,0,1,1l.42-.42,9.4,10.21,0,0a4.45,4.45,0,0,0,6.3-6.3l0,0L26.44,21l.41-.41a.74.74,0,0,0-1-1l-.46.46-1.09-1,4.4-4.4a7.43,7.43,0,0,0,9-9.54A.74.74,0,0,0,37.08,4.57Zm-30.56,3A.73.73,0,0,0,6,7.35H4.31L1.68,3,3,1.68,7.35,4.31V6a.74.74,0,0,0,.22.52l9.33,9.35-1,1ZM25.39,22l10.26,9.41a3,3,0,0,1-4.2,4.2L22,25.41ZM24.3,21,21,24.32l-1-1.09L23.21,20Zm6.28-7.68a5.93,5.93,0,0,1-1.9-.31.74.74,0,0,0-.76.18L13.23,27.92a.74.74,0,0,0-.18.76,5.94,5.94,0,0,1-5.63,7.83,6.08,6.08,0,0,1-.65,0l2.36-2.34a.74.74,0,0,0,.22-.53v-2.1A.74.74,0,0,0,9.13,31L7,28.87a.74.74,0,0,0-.52-.22H4.38a.74.74,0,0,0-.53.22L1.52,31.22a6,6,0,0,1,0-.65,5.94,5.94,0,0,1,7.83-5.63.74.74,0,0,0,.76-.18L24.77,10.08a.74.74,0,0,0,.18-.76,5.94,5.94,0,0,1,5.63-7.83,6.07,6.07,0,0,1,.67,0L28.94,3.86a.74.74,0,0,0-.21.52v2.1a.74.74,0,0,0,.21.52L31,9.12a.74.74,0,0,0,.53.23h2.1a.74.74,0,0,0,.53-.22l2.34-2.36a6,6,0,0,1,0,.65A5.94,5.94,0,0,1,30.58,13.36Z"/><path class="cls-1" d="M23.12,13.83l-9.29,9.29a.74.74,0,1,0,1,1l9.29-9.29a.74.74,0,0,0-1-1Z"/><path class="cls-1" d="M32.57,33.57a.7.7,0,0,0,1-1l-6.33-6.31a.7.7,0,0,0-1,1Z"/></g></g></svg>