<svg xmlns="http://www.w3.org/2000/svg" viewBox="0 0 37.31 35.6"><defs><style>.cls-1{fill:#009a95;}</style></defs><title>icon-house</title><g id="圖層_2" data-name="圖層 2"><g id="圖層_1-2" data-name="圖層 1"><path class="cls-1" d="M37,16.06,19.41.36l-.1-.07a1,1,0,0,0-1.41,0L.35,16a1.05,1.05,0,0,0-.09,1.47,1,1,0,0,0,.78.34,1,1,0,0,0,.69-.26l3.16-2.83V33A2.61,2.61,0,0,0,7.5,35.6H13a2.45,2.45,0,0,0,2.45-2.45V23.84a.37.37,0,0,1,.37-.37h5.6a.38.38,0,0,1,.37.37v9.31a2.45,2.45,0,0,0,2.45,2.45h5.54c1.46,0,2.61-1.44,2.61-3.27V14.78l3.16,2.83a1,1,0,0,0,.69.26A1,1,0,0,0,37,16.06Zm-6.61,5.12V32.31c0,.75-.37,1.2-.54,1.2H24.27a.37.37,0,0,1-.37-.38V23.84a2.45,2.45,0,0,0-2.45-2.45h-5.6a2.45,2.45,0,0,0-2.44,2.45v9.31a.38.38,0,0,1-.38.38H7.49A.54.54,0,0,1,7,33V12.82L18.6,2.42l11.75,10.5v8.26Z"/></g></g></svg>