<svg xmlns="http://www.w3.org/2000/svg" viewBox="0 0 34.72 43.4"><defs><style>.cls-1{fill:#009a95;}</style></defs><title>icon-plan</title><g id="圖層_2" data-name="圖層 2"><g id="圖層_1-2" data-name="圖層 1"><path class="cls-1" d="M4.34,43.4h26a4.34,4.34,0,0,0,4.34-4.34V8.68a4.34,4.34,0,0,0-4.34-4.34h-4.9a2.16,2.16,0,0,0-1.61-.72H21.64a4.34,4.34,0,0,0-8.56,0H10.85a2.16,2.16,0,0,0-1.61.72H4.34A4.34,4.34,0,0,0,0,8.68V39.06A4.34,4.34,0,0,0,4.34,43.4Zm26-10.85H25.31A1.45,1.45,0,0,0,23.87,34v5.06H5.06a.72.72,0,0,1-.72-.72V9.41a.72.72,0,0,1,.72-.72H8.68a2.17,2.17,0,0,0,2.17,2.17h13A2.17,2.17,0,0,0,26,8.68h3.62a.72.72,0,0,1,.72.72Zm-1,1.45-4,4V34ZM10.85,5.07h2.89a.72.72,0,0,0,.72-.72,2.89,2.89,0,1,1,5.79,0,.72.72,0,0,0,.72.72h2.89a.72.72,0,0,1,.72.72V8.68a.72.72,0,0,1-.72.72h-13a.72.72,0,0,1-.72-.72V5.79A.72.72,0,0,1,10.85,5.07ZM1.45,8.68A2.89,2.89,0,0,1,4.34,5.79H8.68V7.24H5.06A2.17,2.17,0,0,0,2.89,9.41V38.34a2.17,2.17,0,0,0,2.17,2.17H24a2.16,2.16,0,0,0,.87-.19l0,0a2.17,2.17,0,0,0,.63-.43l5.66-5.66a2.17,2.17,0,0,0,.43-.62l0,0a2.16,2.16,0,0,0,.18-.87V9.41a2.17,2.17,0,0,0-2.17-2.17H26V5.79h4.34a2.89,2.89,0,0,1,2.89,2.89V39.06A2.89,2.89,0,0,1,30.38,42h-26a2.89,2.89,0,0,1-2.89-2.89Z"/><path class="cls-1" d="M13.74,8H21a.72.72,0,1,0,0-1.45H13.74a.72.72,0,0,0,0,1.45Z"/><path class="cls-1" d="M12.3,18.81a.72.72,0,0,0-.72.72v.72H7.23V15.92H9.4a.72.72,0,0,0,0-1.45H7.23a1.45,1.45,0,0,0-1.45,1.45v4.34A1.45,1.45,0,0,0,7.23,21.7h4.34A1.45,1.45,0,0,0,13,20.26v-.72A.72.72,0,0,0,12.3,18.81Z"/><path class="cls-1" d="M11.57,24.6H7.23A1.45,1.45,0,0,0,5.79,26v4.34a1.45,1.45,0,0,0,1.45,1.45h4.34A1.45,1.45,0,0,0,13,30.38V26A1.45,1.45,0,0,0,11.57,24.6ZM7.23,30.38V26h4.34v4.34Z"/><path class="cls-1" d="M15.19,17.36h3.62a.72.72,0,0,0,0-1.45H15.19a.72.72,0,0,0,0,1.45Z"/><path class="cls-1" d="M28.21,15.92H21.7a.72.72,0,1,0,0,1.45h6.51a.72.72,0,0,0,0-1.45Z"/><path class="cls-1" d="M15.19,20.26h7.23a.72.72,0,1,0,0-1.45H15.19a.72.72,0,0,0,0,1.45Z"/><path class="cls-1" d="M28.21,18.81H25.31a.72.72,0,1,0,0,1.45h2.89a.72.72,0,0,0,0-1.45Z"/><path class="cls-1" d="M15.19,27.49h3.62a.72.72,0,0,0,0-1.45H15.19a.72.72,0,0,0,0,1.45Z"/><path class="cls-1" d="M28.21,26H21.7a.72.72,0,1,0,0,1.45h6.51a.72.72,0,0,0,0-1.45Z"/><path class="cls-1" d="M22.42,28.93H15.19a.72.72,0,0,0,0,1.45h7.23a.72.72,0,1,0,0-1.45Z"/><path class="cls-1" d="M28.21,28.93H25.31a.72.72,0,1,0,0,1.45h2.89a.72.72,0,0,0,0-1.45Z"/><path class="cls-1" d="M13.15,13.33,10,17.69l-.84-.84a.72.72,0,0,0-1,1l1.45,1.45a.72.72,0,0,0,.51.21h.06a.72.72,0,0,0,.53-.3l3.62-5.06a.72.72,0,1,0-1.18-.84Z"/></g></g></svg>