<svg xmlns="http://www.w3.org/2000/svg" viewBox="0 0 33 77.39"><defs><style>.cls-1{fill:#edbe31;}</style></defs><title>Laurel-r</title><g id="圖層_2" data-name="圖層 2"><g id="圖層_1-2" data-name="圖層 1"><path class="cls-1" d="M18.41,8.68A5.86,5.86,0,0,1,17,8.53a9.39,9.39,0,0,1-2.83-1.16l0,0a18.33,18.33,0,0,1-2.44-1.8c-.14-.14-.3-.27-.45-.4h0a8.13,8.13,0,0,1,3.09.51,15,15,0,0,1,2.58,1.57L19,8.67ZM18.76,6a35.11,35.11,0,0,1-1.51-4.28A7.35,7.35,0,0,1,17,0a10.41,10.41,0,0,1,2.42,3.23,7.37,7.37,0,0,1,.34,5Z"/><path class="cls-1" d="M23.57,17.3a3.82,3.82,0,0,1-.77-.15L22.34,17a8.66,8.66,0,0,1-2.8-1A11.67,11.67,0,0,1,17,13.77l-.78-1-.39-.47-.18-.27L15.56,12a6.07,6.07,0,0,1,3,.84A55.14,55.14,0,0,1,23.51,17l-.34-3.06a10.87,10.87,0,0,1,0-3.73,15.41,15.41,0,0,1,.71-2.66c.09.23.17.45.26.67a12,12,0,0,1,1,3.71,7,7,0,0,1-1.55,5.4Z"/><path class="cls-1" d="M26.6,27.66c-.73-.09-2-.65-4-2.61a17.58,17.58,0,0,1-3-4.45,12.19,12.19,0,0,1,3.26,1.69,48,48,0,0,1,3.75,5,58.2,58.2,0,0,1,1.5-7.81,19.72,19.72,0,0,1,1.27-2.78c.12.59.21,1.18.29,1.68a10.65,10.65,0,0,1,0,3.42,9.7,9.7,0,0,1-1.14,3.49,13,13,0,0,1-1.85,2.18Z"/><path class="cls-1" d="M27,38.67a14.32,14.32,0,0,1-3.9-4.34,20.84,20.84,0,0,1-1.77-4.52,12.32,12.32,0,0,1,3.38,2.61,8.11,8.11,0,0,1,1.7,3.39l.7,2.21s2.52-4.42,3.19-5.55l.52-.9.07-.12A9.45,9.45,0,0,1,32,29.74c.16-.17.34-.34.53-.52a12.53,12.53,0,0,1-1.32,5.61,10,10,0,0,1-2.32,2.82,6.42,6.42,0,0,1-1.32.73Z"/><path class="cls-1" d="M25,50.14,24.62,50a13.58,13.58,0,0,1-2.35-5.21,19.48,19.48,0,0,1-.52-3.85c0-.64-.1-1.28-.17-1.9.4.38.73.74.9.93a8.79,8.79,0,0,1,2.3,5.33c0,.18,0,.39.09.6s.09,3.87.09,3.87,4.19-6.13,5.9-7.77A10.22,10.22,0,0,1,33,40.38c-.12.4-.22.79-.32,1.18s-.21.84-.34,1.24a12.2,12.2,0,0,1-1.64,3.56C29.33,48.24,27,50.14,25,50.14Z"/><path class="cls-1" d="M20.22,61.15c-.23,0-.47,0-.7,0-1.21-1.85-1.21-4.46-1.2-6.78v-.17A10.19,10.19,0,0,1,18.64,52c.09-.4.18-.83.25-1.25.11-.73.19-1.45.26-2.16,1.81,2.3,3,5.55,1.8,8.55l-.9,3.26,2.71-2.09c.51-.51,1.09-1,1.66-1.5l1-.87.24-.21a15.39,15.39,0,0,1,2.29-1.84,16.49,16.49,0,0,1,3-1.44c-.25.5-.47,1-.69,1.49s-.48,1.06-.74,1.55a10.27,10.27,0,0,1-2.58,3.19,10.55,10.55,0,0,1-6.67,2.43Z"/><path class="cls-1" d="M15.62,70.86a9.81,9.81,0,0,1-5.1-1.39,1.85,1.85,0,0,0,0-.23,7.23,7.23,0,0,1,0-2.08,21.35,21.35,0,0,1,1.43-5c.13-.27.25-.55.37-.82.27-.6.52-1.16.81-1.67.15-.26.32-.51.5-.79a10.21,10.21,0,0,0,.93-1.59l0-.09a10.36,10.36,0,0,1,.17,3.44,13,13,0,0,1-.82,3.38,9,9,0,0,1-.56,1.12c-.32.6-2,4-2,4l2.55-.69.9-.3a21.55,21.55,0,0,0,3.32-1.31,30.37,30.37,0,0,1,3.61-1.69,14.51,14.51,0,0,1,3.71-.84c-.65.67-1.23,1.4-1.8,2.11-1.24,1.54-2.4,3-4.18,3.7A10.59,10.59,0,0,1,15.62,70.86Z"/><path class="cls-1" d="M7.69,77.39c-2.42,0-5.54-.8-7.26-2.57-.06-.35-.14-.66-.21-1a4,4,0,0,1-.11-2.2,7.59,7.59,0,0,1,1.47-2.77,26.49,26.49,0,0,1,3.54-3.39l.24-.2c.18-.15.37-.31.57-.46a14.32,14.32,0,0,0,1.52-1.36,6.06,6.06,0,0,1-.83,4.46A17.22,17.22,0,0,1,4.3,70.55l-.39.39a10.55,10.55,0,0,0-.69.81,5.72,5.72,0,0,1-.47.57L.51,74.78l3.26-.63A16.55,16.55,0,0,1,5.58,74a13.85,13.85,0,0,0,2.35-.26,7.49,7.49,0,0,1,1.7-.16c.73,0,1.46.06,2.16.11h.15a13.27,13.27,0,0,1,3.94.94l-2.1.93-.85.37-.9.36a12,12,0,0,1-4,1.11Z"/></g></g></svg>