<svg xmlns="http://www.w3.org/2000/svg" viewBox="0 0 88 15"><defs><style>.cls-1{fill:none;}.cls-2{fill:#200f09;}</style></defs><title>line-dots</title><g id="圖層_2" data-name="圖層 2"><g id="圖層_1-2" data-name="圖層 1"><rect class="cls-1" width="12.57" height="15"/><rect class="cls-2" x="9.31" y="6.97" width="2.33" height="1.5"/><rect class="cls-2" x="5.12" y="6.97" width="2.33" height="1.5"/><rect class="cls-2" x="0.95" y="6.97" width="2.33" height="1.5"/><rect class="cls-1" x="12.57" width="12.57" height="15"/><rect class="cls-2" x="21.88" y="6.97" width="2.33" height="1.5"/><rect class="cls-2" x="17.7" y="6.97" width="2.33" height="1.5"/><rect class="cls-2" x="13.52" y="6.97" width="2.33" height="1.5"/><rect class="cls-1" x="25.14" width="12.57" height="15"/><rect class="cls-2" x="34.45" y="6.97" width="2.33" height="1.5"/><rect class="cls-2" x="30.27" y="6.97" width="2.33" height="1.5"/><rect class="cls-2" x="26.1" y="6.97" width="2.33" height="1.5"/><rect class="cls-1" x="37.71" width="12.57" height="15"/><rect class="cls-2" x="47.02" y="6.97" width="2.33" height="1.5"/><rect class="cls-2" x="42.84" y="6.97" width="2.33" height="1.5"/><rect class="cls-2" x="38.67" y="6.97" width="2.33" height="1.5"/><rect class="cls-1" x="50.29" width="12.57" height="15"/><rect class="cls-2" x="59.59" y="6.97" width="2.33" height="1.5"/><rect class="cls-2" x="55.41" y="6.97" width="2.33" height="1.5"/><rect class="cls-2" x="51.24" y="6.97" width="2.33" height="1.5"/><rect class="cls-1" x="62.86" width="12.57" height="15"/><rect class="cls-2" x="72.17" y="6.97" width="2.33" height="1.5"/><rect class="cls-2" x="67.98" y="6.97" width="2.33" height="1.5"/><rect class="cls-2" x="63.81" y="6.97" width="2.33" height="1.5"/><rect class="cls-1" x="75.43" width="12.57" height="15"/><rect class="cls-2" x="84.74" y="6.97" width="2.33" height="1.5"/><rect class="cls-2" x="80.55" y="6.97" width="2.33" height="1.5"/><rect class="cls-2" x="76.38" y="6.97" width="2.33" height="1.5"/></g></g></svg>