<svg xmlns="http://www.w3.org/2000/svg" viewBox="0 0 119.48 180.93"><defs><style>.cls-1{fill:#0d0d0d;}.cls-2{fill:#00cec3;}.cls-3{fill:none;}.cls-4{fill:#f1caab;}.cls-5{fill:#edbc8f;}.cls-6{fill:#f8e8dc;}.cls-7{fill:#fff;}.cls-8{fill:#ebebeb;}</style></defs><title>step-3</title><g id="圖層_2" data-name="圖層 2"><g id="圖層_1-2" data-name="圖層 1"><path class="cls-1" d="M77.24,9.2H23.36a7.58,7.58,0,0,0-7.56,7.56V34.55h-.27a.29.29,0,0,0-.3.3v8.26a.3.3,0,0,0,.3.31h.27v3h-.27a.29.29,0,0,0-.3.3V55a.3.3,0,0,0,.3.31h.27v89.25a7.58,7.58,0,0,0,7.56,7.56H77.24a7.58,7.58,0,0,0,7.56-7.56V16.76A7.58,7.58,0,0,0,77.24,9.2Z"/><path class="cls-2" d="M79.44,16.45H21.16a2.63,2.63,0,0,0-2.62,2.61V140.87a2.63,2.63,0,0,0,2.62,2.61H79.44a2.63,2.63,0,0,0,2.62-2.61V19.06A2.63,2.63,0,0,0,79.44,16.45Z"/><path class="cls-3" d="M6.9,107.24c-.21-.63-.53-1.64-.91-2.85A19.5,19.5,0,0,0,6.9,107.24Z"/><path class="cls-4" d="M8,138.41c-.86,1.89-1.49,4.14-.82,6,1.45,4,3.56,8,6.66,7.58s3.29-1.38,3.62-2.44S15.58,142,15.58,142v-2c-1.69-.46-3.9-1.06-6.12-1.63A2.63,2.63,0,0,0,8,138.41Z"/><path class="cls-4" d="M15.51,68.76s-1.18.27-3.56.93S2.47,71.53,2.47,74s1,9.25,11.42,9c.59-.19,1.14-.35,1.62-.49Z"/><path class="cls-4" d="M6,104.39c.38,1.21.7,2.22.91,2.85.88,2.16,2.4,4.6,4.74,4.49a14.13,14.13,0,0,0,4-.77v-.56s3-2.43,3-5.46-2.63-10-2.63-10a35.14,35.14,0,0,1-.53-3.82V88.23A40.41,40.41,0,0,1,11,86.83a3,3,0,0,0-1.32-.16c-3.09,3-6.59,7.09-5.87,10.1.6,2.51,1.39,5.2,2,7.32l0-.07A3.71,3.71,0,0,0,6,104.39Z"/><path class="cls-4" d="M10.5,114.5a16,16,0,0,0-6.08,3.37,8.92,8.92,0,0,0,.22,2.68c1.19,4.61,3.62,13.71,5.67,14l-.07.08a10.51,10.51,0,0,0,5.34-.38v0a7.48,7.48,0,0,0,2.76-7.51c-1.05-4.81-2.63-7.84-2.7-8.9,0-.39,0-1.53,0-2.79A8.61,8.61,0,0,0,10.5,114.5Z"/><path class="cls-5" d="M11,86.83a40.41,40.41,0,0,0,4.47,1.4V82.51c-.48.14-1,.3-1.62.49H14a52.49,52.49,0,0,0-4.28,3.67A3,3,0,0,1,11,86.83Z"/><path class="cls-5" d="M11.64,111.73c-2.34.11-3.86-2.33-4.74-4.49l.24.73s-2.5,5.42-2.72,9.9a16,16,0,0,1,6.08-3.37,8.61,8.61,0,0,1,5.11.49c0-1.5,0-3.18,0-4A14.13,14.13,0,0,1,11.64,111.73Z"/><path class="cls-5" d="M5.91,104l0,.07c0,.1.07.2.1.3A3.71,3.71,0,0,1,5.91,104Z"/><path class="cls-5" d="M2.77,119.74a1.8,1.8,0,0,0-.3.89C2.47,120.92,2.58,120.54,2.77,119.74Z"/><path class="cls-5" d="M10.24,134.6A22.32,22.32,0,0,0,8,138.41a2.63,2.63,0,0,1,1.5,0c2.22.57,4.43,1.17,6.12,1.63v-5.83A10.51,10.51,0,0,1,10.24,134.6Z"/><path class="cls-6" d="M9,109.79s-4.48-8-1.41-12.3,7.47,6.68,7.56,7.2a1.34,1.34,0,0,1-1.15.79C13,105.66,8.79,108.38,9,109.79Z"/><path class="cls-6" d="M9.05,119.89A4.39,4.39,0,0,0,7,124.55c.7,3.07,2.1,7.38,2.1,7.38s-.08.79,1.23-.53a9.16,9.16,0,0,1,3.61-2.28c.7-.18,1.93.08,1.23-2.64S12.48,118.57,9.05,119.89Z"/><path class="cls-6" d="M8.7,143.35a2.9,2.9,0,0,1,2.38-1.41c1.49.09,3.07,5.45,3.07,5.45a22.2,22.2,0,0,0-1.85,1.32c-.87.7-1.23,1.84-1.66,1.75S8.35,146.69,8.7,143.35Z"/><path class="cls-6" d="M9,70.48s-6.76,1-6.32,5.09c0,0-1.93-1.49.57-3.6s6.89-1.89,6.89-1.89Z"/><path class="cls-5" d="M51.37,169.45c.59-8.5,7.31-17.2,15.21-11.86s6.72,4.94,9.1,2,7.06-7.43,8.09-11.23h0a7.58,7.58,0,0,1-6.53,3.76H36.35c2.34,6.18,11.28,28,20.95,28.81h2.51C55.78,178.42,51,174.4,51.37,169.45Z"/><path class="cls-6" d="M89.17,70.61c.43,4,2.46,13.64,6.92,9.83a34.91,34.91,0,0,1-1-10s0-3.67-3.14-4.89A5.28,5.28,0,0,0,89.17,70.61Z"/><path class="cls-4" d="M110,166.67a24.79,24.79,0,0,1-1.61-4.87c-.17-.83-.33-1.67-.49-2.5-2.08-11.25-2.77-22.93-3.94-34.27-.71-6.92-1.79-13.87-2.12-20.81-.19-4.08-.07-8.26-1.19-12.23s-3.57-7.44-4.58-11.55c-4.46,3.81-6.49-5.87-6.92-9.83a5.28,5.28,0,0,1,2.79-5,7.31,7.31,0,0,0-4-.25c-7.12,1.18-4.88,19.9-4.22,24.51a79.82,79.82,0,0,1,.92,10c0,.38.11,4.48.11,9.93v34.74a7.49,7.49,0,0,1-1,3.79h0c-1,3.8-5.72,8.27-8.09,11.23s-1.19,3.36-9.1-2S52,161,51.37,169.45c-.35,5,4.41,9,8.44,11.45H84.69v0h34.79S113.27,174.08,110,166.67Z"/><rect class="cls-7" x="27.14" y="94.31" width="46.39" height="5.62" rx="2.37" ry="2.37"/><rect class="cls-7" x="27.14" y="103.28" width="34.3" height="5.62" rx="2.37" ry="2.37"/><rect class="cls-7" x="27.14" y="112.25" width="46.39" height="5.62" rx="2.37" ry="2.37"/><path class="cls-8" d="M38.61,0H6A6,6,0,0,0,0,6V27.53a6,6,0,0,0,6,6H27.4l9.91,11.62V33.55h1.3a6,6,0,0,0,6-6V6A6,6,0,0,0,38.61,0Z"/><path class="cls-2" d="M28.9,15.69h-21a1.56,1.56,0,0,1-1.56-1.56h0a1.56,1.56,0,0,1,1.56-1.55h21a1.56,1.56,0,0,1,1.56,1.55h0A1.56,1.56,0,0,1,28.9,15.69Z"/><path class="cls-2" d="M32.75,20.66H7.88A1.56,1.56,0,0,1,6.32,19.1h0a1.56,1.56,0,0,1,1.56-1.56H32.75A1.56,1.56,0,0,1,34.3,19.1h0A1.56,1.56,0,0,1,32.75,20.66Z"/><path class="cls-2" d="M21.94,25.62H7.88a1.56,1.56,0,0,1-1.56-1.55h0a1.56,1.56,0,0,1,1.56-1.56H21.94a1.56,1.56,0,0,1,1.56,1.56h0A1.56,1.56,0,0,1,21.94,25.62Z"/><path class="cls-2" d="M37.15,10.72h-29A1.71,1.71,0,0,1,6.32,9.17h0A1.71,1.71,0,0,1,8.14,7.61h29A1.7,1.7,0,0,1,39,9.17h0A1.7,1.7,0,0,1,37.15,10.72Z"/></g></g></svg>