<svg xmlns="http://www.w3.org/2000/svg" viewBox="0 0 154.25 176.85"><defs><style>.cls-1{isolation:isolate;}.cls-2{fill:#2d373f;}.cls-3{fill:#fff;}.cls-4{fill:#2b4454;}.cls-5{fill:#5fdaff;}.cls-6{opacity:0.3;}.cls-10,.cls-6,.cls-9{mix-blend-mode:multiply;}.cls-7{fill:#4cd1ff;}.cls-8{fill:#97aecb;}.cls-9{opacity:0.5;}.cls-10{fill:#1aa8c6;}.cls-11{fill:#ebebeb;}.cls-12{fill:#485d68;}.cls-13{fill:#dc6843;}.cls-14{fill:#0e9f98;}</style></defs><title>step-2</title><g class="cls-1"><g id="圖層_2" data-name="圖層 2"><g id="圖層_1-2" data-name="圖層 1"><path class="cls-2" d="M144.06,100.14a5.47,5.47,0,0,1-5.35,4.24H15.51a5.4,5.4,0,0,1-5.32-4.2C6.81,79.24,3.15,58.36.25,37.34-.07,35,1.78,33.09,4.44,33.09L149.8,33c2.66,0,4.51,1.86,4.21,4.18C151.14,58.25,147.51,79.18,144.06,100.14Z"/><path class="cls-3" d="M144.21,99.17,10,99.22C6.61,78.08,2.92,57,0,35.75c-.31-2.37,1.31-6.06,4-6.06h146.2c2.66,0,4.3,3.61,4,5.94C151.37,56.89,147.7,78,144.21,99.17Z"/><path class="cls-4" d="M143.93,100.88l-133.62,0C6.9,79.78,3.2,58.69.27,37.47,0,35.1,1.79,33.18,4.45,33.18l145.34-.07c2.66,0,4.51,1.88,4.2,4.21C151.09,58.58,147.41,79.72,143.93,100.88Z"/><path class="cls-5" d="M139.93,95.38l-125.6.08C11.23,76.31,8,57.18,5.32,38q71.81-.09,143.62-.15C146.3,57.06,143.08,76.21,139.93,95.38Z"/><g class="cls-6"><path class="cls-7" d="M145.86,59q1.62-10.56,3.08-21.14h-3.43c-18.8,19-38,37.51-55.67,57.58l32.12,0C129.8,83.16,137.86,71.08,145.86,59Z"/></g><g class="cls-6"><path class="cls-7" d="M60.87,38.8c.1-.32.15-.48.26-.8L41,37.91C32.67,53.61,21.43,68,12.36,83.36c.8,4.85,1.2,7.27,2,12.1C28.76,75.76,42.89,55.51,60.87,38.8Z"/></g><path class="cls-8" d="M143.78,171.63c0,2.62-2.51,4.76-5.54,4.79l-123,.43c-3,0-5.49-2.1-5.47-4.74l.58-61c0-2.62,2.51-4.76,5.55-4.77l123-.45c3,0,5.48,2.1,5.46,4.74Z"/><path class="cls-3" d="M143.8,169.35c0,2.6-2.51,4.74-5.56,4.75l-123,.43c-3,0-5.49-2.09-5.46-4.71L10.4,109c0-2.62,2.51-4.75,5.56-4.76l123-.44c3,0,5.48,2.1,5.46,4.71Z"/><path class="cls-8" d="M138.33,144a5.45,5.45,0,0,1-5.66,5.11L20.1,150.3c-4.76,0-6.07-3-6-5.85l.32-33.25A5.44,5.44,0,0,1,20,106.11l113.06-.39a5.26,5.26,0,0,1,5.55,5.07Z"/><path class="cls-3" d="M139.24,144.83a5.46,5.46,0,0,1-5.66,5.1l-113.06.39A5.3,5.3,0,0,1,15,145.25L15.3,112A5.45,5.45,0,0,1,21,106.9L134,106.52a5.28,5.28,0,0,1,5.55,5.07Z"/><polygon class="cls-2" points="24.37 115.31 19.78 115.32 19.84 110.47 24.42 110.46 24.37 115.31"/><polygon class="cls-2" points="40.73 114.14 36.14 114.16 36.17 111.14 40.76 111.11 40.73 114.14"/><polygon class="cls-2" points="48.77 114.11 44.19 114.13 44.21 111.1 48.79 111.08 48.77 114.11"/><polygon class="cls-2" points="56.83 114.08 52.23 114.09 52.26 111.07 56.85 111.04 56.83 114.08"/><polygon class="cls-2" points="64.83 114.04 60.25 114.05 60.28 111.03 64.87 111 64.83 114.04"/><polygon class="cls-2" points="72.87 114 68.28 114.03 68.31 110.99 72.89 110.97 72.87 114"/><polygon class="cls-2" points="80.93 113.96 76.33 113.99 76.37 110.95 80.96 110.93 80.93 113.96"/><polygon class="cls-2" points="89.7 113.93 85.11 113.94 85.14 110.92 89.74 110.89 89.7 113.93"/><polygon class="cls-2" points="97.74 113.89 93.15 113.91 93.17 110.88 97.77 110.86 97.74 113.89"/><polygon class="cls-2" points="105.79 113.86 101.2 113.88 101.23 110.84 105.82 110.83 105.79 113.86"/><polygon class="cls-2" points="113.81 113.81 109.23 113.84 109.24 110.81 113.83 110.8 113.81 113.81"/><polygon class="cls-2" points="121.84 113.78 117.25 113.8 117.28 110.78 121.86 110.76 121.84 113.78"/><polygon class="cls-2" points="129.9 113.74 125.31 113.76 125.33 110.73 129.93 110.72 129.9 113.74"/><polygon class="cls-2" points="40.65 124.49 36.05 124.51 36.1 119.38 40.69 119.35 40.65 124.49"/><polygon class="cls-2" points="33.3 124.52 28.71 124.54 28.75 119.41 33.34 119.39 33.3 124.52"/><polygon class="cls-2" points="48.68 124.45 44.09 124.47 44.13 119.34 48.72 119.32 48.68 124.45"/><polygon class="cls-2" points="56.73 124.41 52.14 124.44 52.18 119.31 56.78 119.28 56.73 124.41"/><polygon class="cls-2" points="64.75 124.37 60.16 124.4 60.2 119.27 64.8 119.25 64.75 124.37"/><polygon class="cls-2" points="72.78 124.34 68.2 124.36 68.23 119.24 72.83 119.22 72.78 124.34"/><polygon class="cls-2" points="80.83 124.3 76.24 124.33 76.29 119.2 80.88 119.18 80.83 124.3"/><polygon class="cls-2" points="89.62 124.26 85.03 124.28 85.08 119.15 89.67 119.13 89.62 124.26"/><polygon class="cls-2" points="103.02 124.21 93.06 124.25 93.11 119.12 103.06 119.08 103.02 124.21"/><polygon class="cls-2" points="110.48 125.97 105.91 125.99 105.95 120.86 110.54 120.84 110.48 125.97"/><polygon class="cls-2" points="130.99 123.67 127.11 123.69 127.15 119.35 131.03 119.33 130.99 123.67"/><polygon class="cls-2" points="136.03 123.65 132.15 123.67 132.18 119.32 136.08 119.31 136.03 123.65"/><polygon class="cls-2" points="37.38 131.43 32.78 131.45 32.83 126.32 37.42 126.3 37.38 131.43"/><polygon class="cls-2" points="45.41 131.4 40.83 131.41 40.86 126.29 45.45 126.26 45.41 131.4"/><polygon class="cls-2" points="53.47 131.35 48.87 131.38 48.91 126.24 53.51 126.22 53.47 131.35"/><polygon class="cls-2" points="61.48 131.32 56.89 131.34 56.93 126.22 61.52 126.19 61.48 131.32"/><polygon class="cls-2" points="69.51 131.29 64.92 131.3 64.96 126.18 69.56 126.16 69.51 131.29"/><polygon class="cls-2" points="77.57 131.24 72.97 131.26 73.02 126.14 77.61 126.12 77.57 131.24"/><polygon class="cls-2" points="85.42 131.22 80.84 131.24 80.88 126.1 85.47 126.08 85.42 131.22"/><polygon class="cls-2" points="93.92 131.17 89.33 131.19 89.37 126.06 93.97 126.04 93.92 131.17"/><polygon class="cls-2" points="110.46 131.1 97.38 131.16 97.43 126.03 110.48 125.97 110.46 131.1"/><polygon class="cls-2" points="110.46 131.1 105.86 131.12 105.91 125.99 110.48 125.97 110.46 131.1"/><polygon class="cls-2" points="130.95 129.53 127.07 129.54 127.09 125.21 130.98 125.19 130.95 129.53"/><polygon class="cls-2" points="135.99 129.51 132.1 129.52 132.14 125.19 136.03 125.17 135.99 129.51"/><polygon class="cls-2" points="40.53 137.94 35.94 137.96 35.98 132.84 40.57 132.8 40.53 137.94"/><polygon class="cls-2" points="48.56 137.9 43.98 137.92 44.02 132.8 48.6 132.77 48.56 137.9"/><polygon class="cls-2" points="26.37 124.75 19.29 124.79 19.34 119.66 26.42 119.63 26.37 124.75"/><polygon class="cls-2" points="29.56 131.67 19.24 131.72 19.28 126.58 29.61 126.54 29.56 131.67"/><polygon class="cls-2" points="31.8 138.18 19.19 138.24 19.23 133.11 31.85 133.05 31.8 138.18"/><polygon class="cls-2" points="31.8 138.18 27.21 138.2 27.26 133.07 31.85 133.05 31.8 138.18"/><polygon class="cls-2" points="56.61 137.87 52.03 137.88 52.07 132.75 56.66 132.73 56.61 137.87"/><polygon class="cls-2" points="64.63 137.83 60.04 137.85 60.08 132.72 64.68 132.7 64.63 137.83"/><polygon class="cls-2" points="72.67 137.79 68.08 137.82 68.12 132.68 72.72 132.66 72.67 137.79"/><polygon class="cls-2" points="80.72 137.75 76.13 137.77 76.18 132.65 80.77 132.63 80.72 137.75"/><polygon class="cls-2" points="89.5 137.72 84.91 137.74 84.96 132.62 89.56 132.59 89.5 137.72"/><polygon class="cls-2" points="111.31 137.62 94.48 137.69 94.53 132.56 111.36 132.49 111.31 137.62"/><polygon class="cls-2" points="118.09 139.29 113.5 139.31 113.55 135.12 118.13 135.11 118.09 139.29"/><polygon class="cls-2" points="111.41 145.36 106.83 145.38 106.86 140.9 111.45 140.87 111.41 145.36"/><polygon class="cls-2" points="118.04 145.33 113.45 145.35 113.49 140.85 118.09 140.83 118.04 145.33"/><polygon class="cls-2" points="124.71 145.29 120.12 145.32 120.15 140.84 124.75 140.81 124.71 145.29"/><polygon class="cls-2" points="130.78 134.96 126.88 134.99 126.93 130.64 130.81 130.63 130.78 134.96"/><polygon class="cls-2" points="125.95 123.69 122.06 123.7 122.11 119.37 126 119.35 125.95 123.69"/><polygon class="cls-2" points="125.91 129.55 122.01 129.57 122.06 125.23 125.94 125.21 125.91 129.55"/><polygon class="cls-2" points="125.74 134.99 121.85 134.99 121.88 130.67 125.77 130.65 125.74 134.99"/><polygon class="cls-2" points="135.94 134.69 132.05 134.71 132.1 130.38 135.97 130.36 135.94 134.69"/><polygon class="cls-2" points="26.2 145.75 19.12 145.79 19.16 140.66 26.24 140.63 26.2 145.75"/><polygon class="cls-2" points="33.38 145.72 28.78 145.74 28.82 140.61 33.41 140.59 33.38 145.72"/><polygon class="cls-2" points="41.39 145.69 36.8 145.7 36.83 140.58 41.43 140.57 41.39 145.69"/><polygon class="cls-2" points="77.75 145.52 44.83 145.68 44.87 140.54 77.8 140.4 77.75 145.52"/><polygon class="cls-2" points="85.76 145.49 81.18 145.51 81.22 140.38 85.81 140.36 85.76 145.49"/><polygon class="cls-2" points="93.34 145.44 88.76 145.47 88.8 140.35 93.39 140.33 93.34 145.44"/><polygon class="cls-2" points="100.93 145.42 96.34 145.44 96.39 140.32 100.99 140.29 100.93 145.42"/><g class="cls-9"><path class="cls-8" d="M138.92,103.77l-9.43,0c6.48.33,5.52,7.9,5.09,55.8-.11,12.42-12.61,11.76-25.82,12.25-16.35.62-90.57,1.85-97.78.73a5.75,5.75,0,0,0,4.34,1.84l123-.33c3.05,0,5.54-2.14,5.56-4.75l.53-60.86C144.4,105.88,142,103.76,138.92,103.77Z"/></g><path class="cls-10" d="M31.89,29.8c2.74,21.05,5.66,42.07,8.28,63.13h78.2c2.89-19.92,5.74-39.85,8.21-59.82l3.19-3.31Z"/><path class="cls-11" d="M115.13,89.69H36.93C33.21,59.77,28.86,29.94,25.35,0H126.71C123.69,30,119.45,59.85,115.13,89.69Z"/><path class="cls-12" d="M111,14.36c-.07.69-1,1.25-2,1.25l-43.9-.09C64,15.52,63,15,63,14.27h0c0-.7.87-1.25,2-1.25l44.25.09c1,0,1.8.56,1.73,1.25Z"/><path class="cls-13" d="M87.78,10.49a1.21,1.21,0,0,1-1.09,1.25L63.9,11.69a1.24,1.24,0,0,1-1.1-1.25h0a1.11,1.11,0,0,1,1-1.26l23,.05a1.12,1.12,0,0,1,1,1.26Z"/><path class="cls-12" d="M110.64,18c-.07.68-.94,1.24-2,1.24l-43.4-.07c-1.13,0-2.06-.56-2.09-1.26h0c0-.69.86-1.25,2-1.25l43.75.08c1,0,1.78.57,1.71,1.26Z"/><path class="cls-12" d="M110.65,30.41c-.08.69-1,1.25-2,1.25H65.61c-1.12,0-2-.56-2.08-1.25h0c0-.69.85-1.25,2-1.25l43.43,0c1,0,1.78.56,1.71,1.24Z"/><path class="cls-13" d="M87.25,26.85a1.21,1.21,0,0,1-1,1.25H64.59a1.22,1.22,0,0,1-1.05-1.26h0a1.09,1.09,0,0,1,.94-1.25l21.82,0a1.09,1.09,0,0,1,1,1.25Z"/><path class="cls-12" d="M110.24,34.07c-.07.69-.95,1.25-2,1.25l-42.51,0c-1.1,0-2-.56-2-1.26h0c0-.69.84-1.25,2-1.25h42.88c1,0,1.76.55,1.68,1.24Z"/><path class="cls-12" d="M109.23,47a1.84,1.84,0,0,1-1.94,1.25l-41.06.09c-1.07,0-2-.55-2-1.25h0c0-.69.81-1.25,1.88-1.25l41.46-.08c1,0,1.72.55,1.64,1.24Z"/><path class="cls-13" d="M88.29,43.55a1.23,1.23,0,0,1-1.08,1.25l-22.06,0a1.21,1.21,0,0,1-1.07-1.25h0a1.09,1.09,0,0,1,1-1.25l22.29,0a1.09,1.09,0,0,1,1,1.25Z"/><path class="cls-12" d="M108.8,50.5c-.08.68-.94,1.25-1.92,1.25l-40.5.1c-1,0-1.92-.55-1.95-1.24h0c0-.69.8-1.26,1.85-1.26l40.9-.1c1,0,1.71.56,1.62,1.25Z"/><path class="cls-14" d="M93.36,79.34c-4.87-.38-8.42-4.12-7.62-8,1-4.64,6.27-7,10.75-6.65,5.13.35,8.44,4.07,7.39,8C102.7,77.1,97.86,79.65,93.36,79.34Zm2.89-13.59c-4.35-.32-8.51,2.22-9.14,5.66s2.31,6.51,6.47,6.83,8.16-2.22,9-5.67S100.61,66.06,96.25,65.75Z"/><path class="cls-14" d="M93,74.2l0,0a.77.77,0,0,1-.27-.19,3.9,3.9,0,0,1-1.11-2.48c0-.37,1.2-.72,1.43-.46a2.92,2.92,0,0,1,.41,1.06,8.67,8.67,0,0,1,2-1.47,10.1,10.1,0,0,1,4.32-1.46s0,0,0,0h0c.76.9,1.13,1.34,1.87,2.24,0,0,0-.39,0-.42-.18-2.37-2.37-4.28-5.53-4.51-3.73-.27-7.27,1.91-7.83,4.86s2,5.58,5.54,5.85a7.91,7.91,0,0,0,2.44-.18c-1.24-1.14-1.87-1.71-3.14-2.85Z"/><path class="cls-14" d="M101.64,71.46c-.74-.9-1.11-1.34-1.87-2.24h0c-.13.23-2.59,1.18-4,2.54s-1.81,2.66-2.54,2.48l-.1,0c1.27,1.14,1.9,1.71,3.14,2.85a6.82,6.82,0,0,0,5.27-4.68A3.33,3.33,0,0,0,101.64,71.46Z"/><path class="cls-3" d="M99.73,69.18a10.1,10.1,0,0,0-4.32,1.46,8.67,8.67,0,0,0-2,1.47,2.92,2.92,0,0,0-.41-1.06c-.23-.26-1.43.09-1.43.46A3.9,3.9,0,0,0,92.73,74a.77.77,0,0,0,.27.19l0,0h.07l.1,0c.73.18,1.05-1,2.54-2.48s3.89-2.31,4-2.54C99.78,69.2,99.77,69.19,99.73,69.18Z"/><path class="cls-14" d="M54.59,45a9.9,9.9,0,0,0-4.41,1.45,7,7,0,0,0-1.79,1.48,3.75,3.75,0,0,0-.64-1.07c-.29-.26-1.49.09-1.42.47A4.89,4.89,0,0,0,48,49.79a1.15,1.15,0,0,0,.33.19l0,0h.08l.11,0c.81.18.92-1,2.24-2.48s3.77-2.31,3.86-2.54C54.65,45,54.64,45,54.59,45Z"/><path class="cls-14" d="M52.1,11.8a11.88,11.88,0,0,0-4.89,1.43,7.73,7.73,0,0,0-2,1.47,3.66,3.66,0,0,0-.69-1.07c-.31-.26-1.62.08-1.55.46a4.81,4.81,0,0,0,1.77,2.49,1.28,1.28,0,0,0,.35.19l0,0h.08l.12,0c.89.18,1-1,2.49-2.46s4.2-2.3,4.31-2.53C52.17,11.83,52.15,11.81,52.1,11.8Z"/><path class="cls-14" d="M53.46,28a10.93,10.93,0,0,0-4.67,1.45,6.9,6.9,0,0,0-1.88,1.47,3.73,3.73,0,0,0-.68-1.07c-.3-.26-1.56.08-1.49.46a4.94,4.94,0,0,0,1.72,2.49,1.21,1.21,0,0,0,.34.19l.05,0h.08L47,33c.86.18,1-1,2.37-2.47s4-2.31,4.1-2.54C53.52,28,53.5,28,53.46,28Z"/><path class="cls-12" d="M57.69,52.7l-14.23.07c-.51-4.33-.78-6.5-1.3-10.84l14.7-.06C57.2,46.21,57.36,48.37,57.69,52.7Zm-13-1,11.53-.06c-.28-3.49-.42-5.24-.71-8.74L43.65,43C44.06,46.47,44.26,48.22,44.67,51.72Z"/><path class="cls-12" d="M56.4,35.89l-15,0c-.51-4.34-.77-6.51-1.28-10.86l15.4,0C55.9,29.39,56.06,31.55,56.4,35.89Zm-13.69-1,12.12,0c-.29-3.5-.44-5.25-.73-8.75l-12.41,0C42.09,29.62,42.3,31.38,42.71,34.88Z"/><path class="cls-12" d="M55.15,19.73l-15.62,0c-.5-4.34-.75-6.51-1.24-10.84h16C54.65,13.24,54.82,15.4,55.15,19.73Zm-14.31-1H53.5c-.29-3.5-.43-5.24-.71-8.74H39.86C40.25,13.45,40.45,15.2,40.84,18.7Z"/></g></g></g></svg>