<svg xmlns="http://www.w3.org/2000/svg" viewBox="0 0 148.79 181"><defs><style>.cls-1{isolation:isolate;}.cls-2{mix-blend-mode:multiply;}.cls-3{fill:#d8d8d8;}.cls-11,.cls-4{fill:#fff;}.cls-5{fill:#d1d1d1;}.cls-6{fill:#e0e0df;}.cls-7{fill:#ebebeb;}.cls-8{fill:#233c49;opacity:0.8;}.cls-9{fill:#294555;}.cls-10{fill:#00cec3;}.cls-11{font-size:21.35px;font-family:NotoSansCJKtc-Regular-B5pc-H, Noto Sans CJK TC;}</style></defs><title>step-1</title><g class="cls-1"><g id="圖層_2" data-name="圖層 2"><g id="圖層_1-2" data-name="圖層 1"><g class="cls-2"><path class="cls-3" d="M6.46,129.36a16.54,16.54,0,0,0,6.25,22.54L62.22,179a16.56,16.56,0,0,0,22.37-6.87L146.68,58.88a16.55,16.55,0,0,0-6.26-22.55L90.92,9.21a16.53,16.53,0,0,0-22.36,6.85Z"/></g><path class="cls-4" d="M2.12,122.12a16.53,16.53,0,0,0,6.25,22.54l49.5,27.13a16.54,16.54,0,0,0,22.37-6.86L142.33,51.64a16.56,16.56,0,0,0-6.25-22.55L86.57,2A16.53,16.53,0,0,0,64.21,8.82Z"/><path class="cls-5" d="M138.94,31.11c4.63,7,3.78,12.81-2.15,23.42-9.13,16.31-50.6,98.13-60.16,109.86-2.21,2.71-9.95,7.11-17,4.87-15.35-4.9-43.59-21.22-50-23.94,0-.12,4.53,2.51,4.53,2.51l43.71,24a16.54,16.54,0,0,0,22.37-6.86L142.33,51.64A16.66,16.66,0,0,0,138.94,31.11Z"/><path class="cls-5" d="M14.56,112.49a13.6,13.6,0,0,0,5.63,18.38L62,153.75a13.58,13.58,0,0,0,18.51-5.15L130.15,58a13.6,13.6,0,0,0-5.63-18.37L82.77,16.7a13.61,13.61,0,0,0-18.53,5.14Z"/><path class="cls-6" d="M16.73,111.43a13.38,13.38,0,0,0,5.54,18.1l41.12,22.54A13.39,13.39,0,0,0,81.63,147l48.93-89.27A13.4,13.4,0,0,0,125,39.62L83.9,17.09a13.38,13.38,0,0,0-18.24,5.06Z"/><path class="cls-7" d="M122.5,72.43l8.06-14.7a13.23,13.23,0,0,0-1.33-14.56Q108,53.84,86.4,63.56,58.52,76.1,30,87.19l-7.66,14Z"/><path class="cls-7" d="M25.63,131.37l37.76,20.7A13.39,13.39,0,0,0,81.63,147l20.62-37.61Z"/><path class="cls-6" d="M87.82,19.24,83.9,17.09a13.38,13.38,0,0,0-18.24,5.06l-4.39,8Q74.47,24.51,87.82,19.24Z"/><path class="cls-8" d="M88.28,28a1.87,1.87,0,0,1-2.53.72l-3.36-1.86a1.87,1.87,0,0,1-.73-2.53h0a1.86,1.86,0,0,1,2.53-.72l3.36,1.86A1.87,1.87,0,0,1,88.28,28Z"/><path class="cls-8" d="M79.68,23.18a1.85,1.85,0,0,1-2.52.73L73.8,22.05a1.87,1.87,0,0,1-.73-2.53h0a1.86,1.86,0,0,1,2.53-.72L79,20.66a1.85,1.85,0,0,1,.72,2.52Z"/><path class="cls-5" d="M126.5,31.84a3.57,3.57,0,1,0,4.84-1.41A3.55,3.55,0,0,0,126.5,31.84Z"/><path class="cls-9" d="M127.36,31.83a3.14,3.14,0,1,0,4.26-1.24A3.14,3.14,0,0,0,127.36,31.83Z"/><path class="cls-8" d="M115.45,43a1.86,1.86,0,0,0,.72,2.53l8.74,4.84a1.87,1.87,0,0,0,2.53-.72h0a1.87,1.87,0,0,0-.73-2.53L118,42.28a1.85,1.85,0,0,0-2.52.72Z"/><path class="cls-5" d="M30.7,145.75c-2.11,3.8,3.66,6.74,5.65,7.85s8.53,5,10.66,1.19c2.23-4-4.67-7.3-6.66-8.4S32.7,142.13,30.7,145.75Z"/><path class="cls-4" d="M31.21,146.09c-1.95,3.52,3.39,6.25,5.23,7.27s7.9,4.66,9.87,1.1c2.06-3.72-4.33-6.76-6.17-7.78S33.06,142.74,31.21,146.09Z"/><circle class="cls-10" cx="73.09" cy="89.39" r="23"/><text class="cls-11" transform="translate(58.52 91.9) rotate(27.64)">ok</text></g></g></g></svg>