<svg xmlns="http://www.w3.org/2000/svg" viewBox="0 0 184 54.11"><defs><style>.cls-1{fill:none;stroke:#068882;stroke-miterlimit:10;}.cls-2{fill:#068882;}</style></defs><title>title-icon</title><g id="圖層_2" data-name="圖層 2"><g id="圖層_1-2" data-name="圖層 1"><polyline class="cls-1" points="0 53.61 66 53.61 66 23.61 55 23.61 90 0.61 102 9.61 102 3.61 114 3.61 114 16.61 124 23.61 115 23.61 115 53.61 184 53.61"/><path class="cls-2" d="M90.5,27.61h0a7.5,7.5,0,0,1,7.5,7.5v18.5a0,0,0,0,1,0,0H83a0,0,0,0,1,0,0V35.11a7.5,7.5,0,0,1,7.5-7.5Z"/></g></g></svg>