<svg xmlns="http://www.w3.org/2000/svg" viewBox="0 0 195.81 51.18"><defs><style>.cls-1{opacity:0.47;}.cls-2{fill:#cde4e7;}.cls-3{fill:#009a95;}</style></defs><title>title</title><g id="圖層_2" data-name="圖層 2"><g id="圖層_1-2" data-name="圖層 1"><g class="cls-1"><path class="cls-2" d="M20.34,43.14c5.54.22,9-1.42,12.72-4.42v5.39c-2.32,1.72-7,3.29-13.76,3.06C7.93,46.8-.15,40.59,0,26,.15,14.87,7.93,5.89,18.77,5.89c11.59,0,16.83,9.28,16.83,17.5a13.77,13.77,0,0,1-.3,3.44h-28C7.26,36.78,11.82,42.76,20.34,43.14ZM18.1,9.48c-6.58,0-10.39,7-10.54,13.39H28.27C28.49,17.11,25.28,9.48,18.1,9.48Z"/><path class="cls-2" d="M61.63,24.26c-2,1.28-4.7,2.77-7.47,4.16V46c0,4.64-5,6.34-12.37,1.65l.54-1.87c5.81,1.28,7.25.86,7.25-2V30.66c-2.3,1.06-4.48,2-6.3,2.61l-1.91-5c2.39-.43,5.27-1.12,8.21-1.92V15.46H42.06v-2.4h7.52v-12h4.58v12h6.29v2.4H54.16V25a65.76,65.76,0,0,0,6.67-2.45ZM81.4,22.6c-2.77.17-7.94.27-10.71.11-7-.42-9-1-9-7.09V1h4.8v9.65A57.58,57.58,0,0,0,81,2.45l4.53,3.73a85.61,85.61,0,0,1-19,6.78v1.86c0,2.56.37,3.25,4.79,3.57a84,84,0,0,0,9.6-.1c3.25-.27,3.68-1.5,3.63-8.16l1.92-.05C89.13,19.89,88.34,22.18,81.4,22.6ZM62,26.5H86.58V50.17h-4.7V46.54H66.69v3.79H62Zm4.69,8.74H81.88V28.9H66.69Zm0,8.9H81.88v-6.5H66.69Z"/><path class="cls-2" d="M104.75,19.25c-.21,19.35-4.53,25.75-9.43,31.08l-1.5-1.23c3.79-5.38,6-11.46,6-27.88V4.27l4.53,1.06c8.85-.32,21.17-2.24,28.15-4.9l4.9,4.42c-9.54,1.92-23.4,2.61-32.68,2.4V9.76h33.06v9.49Zm14.45,9.54a29,29,0,0,1-.53,4.8h17.54c-.27,6.34-.86,10.66-1.55,12.95-1.28,4.16-5.12,5.81-13.49.43l.7-1.81c7.67,2.29,8.21,1.12,8.69-1.82A58.51,58.51,0,0,0,131.3,36H118.13c-1.86,6.45-6.34,12.21-16,14.93l-.8-1.71C112,44.41,114,37.43,114.46,28.79H106v-2.4h19.3a91.65,91.65,0,0,0-9-4.8l.48-1.81a51.22,51.22,0,0,1,11.62,2.4l-2,4.21h14.66v2.4ZM104.75,12.16v4.69h28.37V12.16Z"/><path class="cls-2" d="M149,18.23l-.91-1.7A44.12,44.12,0,0,0,162.27,0l5,2.24a41.38,41.38,0,0,1-5.18,6.45V19.62h-4.37V12.69A44.68,44.68,0,0,1,149,18.23Zm16.79,23.35,4.91,3.15c-4.11,2.35-13.44,5.28-21.43,6.45l-.59-1.86C155.72,47.34,161,45,165.79,41.58ZM155.45,21.06H188.5v20H155.45Zm4.69,5.81h23.67V23.46H160.14Zm0,5.76h23.67V29.16H160.14Zm0,6.08h23.67V34.92H160.14Zm30-18a22.26,22.26,0,0,1-13.86-8.58c-3.84.85-7.62,1.7-11.35,2.45l-.54-2.4c3.42-.64,6.88-1.39,10.35-2.13a52.48,52.48,0,0,1-4.53-8.59L174,.32A50.3,50.3,0,0,0,179,9.12c5-1.18,9.92-2.35,14.77-3.63l.64,2.24c-4.53,1.17-9.11,2.29-13.7,3.41a20.05,20.05,0,0,0,7.84,4.8c3.62,1.33,4.21.32,4.05-5.49h1.87C196.56,17.06,196.93,22,190.1,20.74ZM174.22,41.9c5.75.7,13.59,2,19.72,4.38L191.6,51c-4.8-2.56-12.26-5.28-17.86-7.25ZM184.56,7.25c-1.81-1.65-4.48-3.78-6.29-5.22L179,.48a30.19,30.19,0,0,1,7.9,3.25Z"/></g><path class="cls-3" d="M21.44,42.65c5.32.21,8.63-1.37,12.22-4.24v5.17c-2.23,1.65-6.76,3.16-13.22,3C9.52,46.17,1.76,40.2,1.9,26.19,2,15.48,9.52,6.86,19.93,6.86c11.14,0,16.17,8.91,16.17,16.82a12.72,12.72,0,0,1-.29,3.3H8.87C8.87,36.54,13.25,42.29,21.44,42.65ZM19.29,10.31c-6.33,0-10,6.76-10.13,12.86h19.9C29.28,17.64,26.19,10.31,19.29,10.31Z"/><path class="cls-3" d="M61.11,24.51c-2,1.23-4.51,2.66-7.17,4V45.36c0,4.45-4.82,6.09-11.89,1.58l.51-1.79c5.59,1.23,7,.82,7-1.95V30.65c-2.2,1-4.3,1.9-6,2.51l-1.85-4.81c2.31-.41,5.07-1.08,7.89-1.85V16.06H42.31V13.75h7.22V2.23h4.41V13.75h6v2.31h-6v9.11a63.12,63.12,0,0,0,6.4-2.35Zm19-1.59c-2.66.15-7.63.26-10.29.1-6.77-.41-8.66-1-8.66-6.81v-14h4.61v9.28A55.72,55.72,0,0,0,79.7,3.56l4.36,3.58a82,82,0,0,1-18.29,6.51v1.79c0,2.46.36,3.13,4.61,3.43a77.51,77.51,0,0,0,9.22-.1c3.12-.26,3.53-1.43,3.48-7.84l1.85,0C87.54,20.31,86.77,22.51,80.11,22.92ZM61.47,26.66H85.08V49.4H80.57V45.92H66v3.64h-4.5Zm4.5,8.4h14.6V29H66Zm0,8.55h14.6V37.36H66Z"/><path class="cls-3" d="M102.55,19.69c-.21,18.6-4.36,24.74-9.07,29.87l-1.43-1.18c3.63-5.18,5.78-11,5.78-26.79V5.3l4.36,1c8.5-.3,20.33-2.15,27-4.71L134,5.86c-9.17,1.85-22.49,2.51-31.4,2.31v2.4H134.3v9.12Zm13.88,9.17a28.9,28.9,0,0,1-.51,4.61h16.85c-.26,6.1-.82,10.25-1.49,12.45-1.23,4-4.91,5.58-13,.41l.67-1.74c7.38,2.2,7.89,1.07,8.35-1.74a58.17,58.17,0,0,0,.72-7.07H115.4C113.61,42,109.31,47.51,100,50.12l-.77-1.64c10.29-4.61,12.19-11.32,12.65-19.62h-8.15v-2.3h18.55A86.62,86.62,0,0,0,113.66,22l.46-1.75a49.56,49.56,0,0,1,11.17,2.31l-1.9,4h14.09v2.3Zm-13.88-16v4.51H129.8V12.88Z"/><path class="cls-3" d="M145.06,18.72l-.87-1.64A42.44,42.44,0,0,0,157.82,1.2l4.81,2.15a39.74,39.74,0,0,1-5,6.2v10.5h-4.2V13.39A43.13,43.13,0,0,1,145.06,18.72ZM161.2,41.16l4.71,3c-3.95,2.25-12.91,5.07-20.59,6.2l-.57-1.8A50.91,50.91,0,0,0,161.2,41.16Zm-9.94-19.73H183V40.69H151.26ZM155.77,27h22.74V23.74H155.77Zm0,5.53h22.74V29.22H155.77Zm0,5.84h22.74V34.75H155.77Zm28.78-17.26a21.41,21.41,0,0,1-13.31-8.25c-3.69.82-7.33,1.64-10.91,2.36l-.52-2.31c3.28-.61,6.61-1.33,9.94-2a50.33,50.33,0,0,1-4.35-8.25L169,1.51A47.49,47.49,0,0,0,173.9,10c4.76-1.13,9.53-2.25,14.19-3.48l.61,2.15c-4.35,1.12-8.76,2.2-13.16,3.28a19.31,19.31,0,0,0,7.53,4.61c3.48,1.28,4.05.3,3.89-5.28h1.79C190.75,17.59,191.11,22.36,184.55,21.13ZM169.29,41.46c5.53.67,13.06,1.9,19,4.2L186,50.22c-4.61-2.46-11.78-5.07-17.16-7Zm9.94-33.29c-1.74-1.59-4.31-3.64-6-5l.72-1.49a29.18,29.18,0,0,1,7.58,3.13Z"/></g></g></svg>